<svg xmlns="http://www.w3.org/2000/svg">
    <symbol viewBox="0 0 408.7148 408.7004" id="icon-add">
        <path d="M193.2226,0h23.9532c5.1276,.6122,10.2719,1.11,15.3803,1.8542,51.3334,7.4779,94.397,30.5353,127.7093,70.2571,42.2643,50.3964,56.8659,108.613,44.1359,173.0267-9.064,45.8638-32.1299,84.2356-67.7283,114.5604-43.7767,37.2916-94.6817,53.3507-151.9475,47.9981-33.408-3.1226-64.2717-14.2878-92.047-33.1862C44.1749,341.5087,13.9319,296.3002,3.1742,238.4164c-1.4029-7.5484-2.1326-15.2219-3.1742-22.8375v-23.9532c.2375-1.1572,.6067-2.3046,.6931-3.473,2.0777-28.1059,9.5607-54.7223,23.25-79.321C56.1403,50.9758,104.8627,15.6286,169.9841,3.1873,177.6533,1.7221,185.4728,1.0433,193.2226,0Zm35.9298,179.6494v-4.6978c0-14.9009,.0018-29.8018-.0006-44.7027-.0018-11.4417,.1999-22.8883-.0624-34.3241-.3909-17.0444-16.1093-27.9995-31.975-22.5276-9.7816,3.3735-15.8333,12.3792-15.8537,23.8926-.0459,25.9435-.0147,51.8871-.0149,77.8307,0,1.4139,0,2.8277,0,4.5288-1.9153,0-3.3563,0-4.7973,0-25.2783,0-50.5567-.0037-75.835,.0063-2.2602,.0009-4.5353-.06-6.778,.1636-15.9055,1.5859-25.6724,16.9175-20.4132,31.9646,3.4123,9.7628,12.3996,15.7407,23.9671,15.7586,26.4757,.0409,52.9515,.0132,79.4272,.0133h4.4292v4.8969c0,25.8105-.0055,51.621,.0107,77.4316,.0013,1.9921-.0021,4.0053,.263,5.9728,2.0861,15.4862,17.2381,24.7068,31.9571,19.4971,9.5884-3.3938,15.6334-12.3769,15.657-23.6422,.0558-26.6087,.0183-53.2175,.0186-79.8263v-4.3297c20.9742,0,41.3236,.0018,61.6731-.001,7.4504-.001,14.9083,.2008,22.3497-.0618,18.8218-.6644,29.7773-20.2554,20.211-36.1807-4.9608-8.2583-12.6872-11.6884-22.1737-11.6756-27.1376,.0367-54.2753,.0129-82.0601,.0129Z"/>
    </symbol>
</svg>