
<svg xmlns="http://www.w3.org/2000/svg" >
	<symbol viewBox="0 0 46.9 64" id="icon-business-person">
	
			<path d="M23.4,27.5c7.5,0,13.8-6.2,13.8-13.8C37.2,6.2,31,0,23.4,0C15.8,0,9.7,6.2,9.7,13.8C9.7,21.3,15.9,27.4,23.4,27.5z"/>
			<path d="M46.9,46.3c0-3.1-0.6-6.1-2.2-8.8c-3.5-6-8.8-9-15.7-9.1c-3.7,0-7.3,0-11,0c-4.8,0-9.1,1.6-12.6,5
				c-3.3,3.2-5.2,7.1-5.3,11.7C-0.1,50,0.1,55,0,60c0,0.4,0.1,0.6,0.5,0.7c17.5,4.2,32,4.7,45.8-0.1c0.4-0.2,0.5-0.4,0.5-0.8
				C46.8,55.2,46.8,50.8,46.9,46.3z M26,56.4c-0.7,1-1.4,2-2.1,3.1c-0.3,0.4-0.4,0.5-0.7,0c-0.6-1-1.3-2.1-2-3.1
				c-0.3-0.4-0.1-0.9-0.1-1.3c0.3-4.9,0.7-9.9,1-14.8c0-0.6,0.1-1.3,0.1-1.9c0-0.4,0.2-0.5,0.5-0.5c0.6,0,1.2,0,1.8,0
				c0.3,0,0.5,0.1,0.5,0.5c0.3,4.3,0.6,8.6,0.9,12.9c0.1,1.4,0.2,2.9,0.3,4.3C26.2,55.9,26.1,56.1,26,56.4z M27.2,32.7
				c-0.7,1.4-1.3,2.8-2,4.3c-0.1,0.3-0.3,0.4-0.7,0.4c-0.8,0-1.7,0.2-2.4-0.1c-0.6-0.3-0.8-1.3-1.1-2c-0.4-0.9-0.8-1.7-1.3-2.6
				c-0.4-0.8,0-1.3,0.8-1.3c1,0,1.9,0,2.9,0c0.9,0,1.8,0,2.8,0C27.3,31.3,27.6,31.9,27.2,32.7z"/>
	
	</symbol>
</svg>
