<svg xmlns="http://www.w3.org/2000/svg">
	<symbol viewBox="0 0 398.4 398" id="icon-calendar">
		<path d="M49.8,61.9V12.1C50,5.2,55.7-0.2,62.6,0c6.6,0.2,11.9,5.5,12.1,12.1v49.8c-0.2,6.9-5.9,12.3-12.8,12.1
		C55.3,73.8,50,68.5,49.8,61.9z M261.4,74.3c6.9,0,12.4-5.6,12.5-12.4c0,0,0,0,0,0V12.1C273.7,5.2,268-0.2,261.1,0
		c-6.6,0.2-11.9,5.5-12.1,12.1v49.8C249,68.8,254.6,74.3,261.4,74.3C261.4,74.3,261.4,74.3,261.4,74.3z M398.4,298.4
		c0,55-44.6,99.6-99.6,99.6s-99.6-44.6-99.6-99.6c0-55,44.6-99.6,99.6-99.6S398.4,243.4,398.4,298.4L398.4,298.4z M373.5,298.4
		c0-41.2-33.4-74.7-74.7-74.7c-41.2,0-74.7,33.4-74.7,74.7c0,41.2,33.4,74.7,74.7,74.7c0,0,0,0,0,0C340,373,373.4,339.6,373.5,298.4
		L373.5,298.4z M99.6,149H49.8v49.8h49.8V149z M49.8,273.5h49.8v-49.8H49.8V273.5z M124.5,198.8h49.8V149h-49.8V198.8z M124.5,273.5
		h49.8v-49.8h-49.8V273.5z M24.9,295.9V124.1h273.8v49.8h24.9V76.8c0.1-15-11.9-27.3-26.9-27.4c0,0,0,0-0.1,0h-10.3v12.4
		c0,13.7-11.1,24.9-24.9,24.9c-13.7,0-24.9-11.1-24.9-24.9V49.4H87.2v12.4c0,13.7-11.1,24.9-24.9,24.9S37.4,75.6,37.4,61.9V49.4H27
		C12,49.5-0.1,61.8,0,76.8c0,0,0,0,0,0v219.1c-0.1,15,12,27.3,27,27.4h147.3v-24.9H27C25.8,298.2,24.9,297.1,24.9,295.9z M249,198.8
		V149h-49.8v49.8H249z M336.1,298.4h-37.3V261c-0.2-6.9-5.9-12.3-12.8-12.1c-6.6,0.2-11.9,5.5-12.1,12.1v49.8
		c0,6.9,5.6,12.4,12.4,12.5c0,0,0,0,0,0h49.8c6.9-0.2,12.3-5.9,12.1-12.8C348,303.9,342.7,298.5,336.1,298.4L336.1,298.4z"/>
	</symbol>
</svg>
