<svg xmlns="http://www.w3.org/2000/svg" >
	<symbol viewBox="0 0 350 351.6" id="icon-cog">
		<g>
			<path d="M350.1,150.4c0-5-2.2-7.5-7-8.7c-1-0.2-2-0.4-3-0.6c-11.4-1.8-22.7-3.5-34.1-5.2c-2.8-0.4-4.2-1.6-5.1-4.2
				c-1-2.9-1.9-5.9-3.2-8.6c-5.1-10.5-5.6-7.5,2-17.5c5.4-7.1,10.8-14.1,16.2-21.2c3.6-4.7,3.8-9,0.8-13.2c-2.4-3.2-4.7-6.5-7.6-9.2
				c-9.3-9.1-18.1-18.7-27.8-27.2c-6-5.3-9.5-5.6-16-0.8c-8.9,6.7-18,13.3-26.7,20.2c-2.2,1.8-4.3,2.1-6.9,0.9
				c-3.5-1.7-6.9-3.6-10.7-4.5c-4.2-1-5.7-3.4-6.3-7.6c-1.6-11.6-3.3-23.2-5.2-34.8c-0.7-4.1-2.5-7.3-7.2-7.7c-18.5,0-36.9,0-55.4,0
				c-3.7,0.7-5.5,3.3-6.3,6.7c-0.5,2-1,4-1.4,6c-2.1,10.6-3.2,21.4-4.6,32.1c-0.3,2.4-1.2,3.7-3.5,4.4c-4.6,1.5-9,3.3-13.2,5.5
				c-2.8,1.4-4.8,0.9-7.1-0.9c-8.3-6.6-16.7-13-25.1-19.5c-8-6.2-10.3-5.1-18.1,0.5c-0.4,0.3-0.7,0.6-1,0.9
				c-10.5,8.3-19.2,18.4-28.5,28c-1.7,1.8-3.3,3.8-4.8,5.8c-4.5,6.3-4.5,9.1,0.4,15.2c6.7,8.3,13.3,16.7,19.8,25.3
				c2.2,2.9,2.4,5.4,0.8,8.4c-2.1,3.9-4,8-5.3,12.2c-0.8,2.5-2.3,3.6-4.9,4c-12,1.7-23.9,3.6-35.8,5.4c-4.4,0.7-7.4,2.6-8.4,7.1
				c0,18.2,0,36.5,0,54.7c0.5,3.7,2.4,6.3,6.2,7.1c1,0.2,2,0.5,3,0.6c11.2,1.6,22.3,3.3,33.5,4.9c2.3,0.3,4.8,0.3,5.8,3.3
				c1.8,5.5,4,10.9,6.7,16c1.1,2,0.8,3.9-0.7,5.7c-2,2.5-3.8,5.1-5.8,7.6c-4.9,6.3-9.8,12.6-14.6,19c-4.1,5.4-4,9.4,0.1,14.9
				c0.5,0.7,1.1,1.5,1.7,2.2c8.3,10.2,18.1,18.9,27.5,28c2.2,2.1,4.4,4.2,6.8,6.2c4.3,3.5,7.8,3.7,12.5,0.9c1.1-0.7,2.1-1.4,3.1-2.2
				c8.4-6.3,16.7-12.6,25-19c2.8-2.2,5.3-2.6,8.4-0.9c3.2,1.7,6.6,3.3,10.1,4.2c3.9,1,5.3,3.4,5.8,7.3c1.6,11.8,3.3,23.7,5.4,35.5
				c1,5.6,3.5,7.6,9.2,7.6c17.1,0,34.2,0,51.3,0c3.8,0,6.3-1.7,7.7-5.1c0.7-1.6,1.1-3.2,1.4-4.9c2.4-11.5,3.8-23.2,5.2-34.8
				c0.3-2.7,1.4-4.1,3.9-4.9c4.5-1.4,8.7-3.3,12.9-5.4c2.5-1.2,4.3-1.1,6.5,0.7c8.8,6.9,17.5,13.8,26.4,20.6c5.3,4.1,8.4,4.3,14,0.9
				c1.5-0.9,2.8-1.9,4.2-3c11.5-9.4,21.5-20.3,31.3-31.4c7.2-8.2,7.3-11.1,0.5-19.5c-6.6-8.2-13-16.4-19.3-24.8
				c-1.6-2.1-2-3.9-0.6-6.2c2.2-3.9,3.9-8,5.3-12.2c1-3.1,2.7-4.5,6.1-5c12-1.6,23.9-3.4,35.8-5.4c5.2-0.9,8-3.8,8-8.6
				C350.2,184.8,350.2,167.6,350.1,150.4z M174.6,233.9c-32.6-0.3-58.2-26.1-58-58.5c0.2-32.6,26.1-58.2,58.5-58
				c32.6,0.2,58.2,26.1,58,58.5C232.9,208.5,207,234.2,174.6,233.9z"/>
		</g>
	</symbol>
</svg>
