
<svg xmlns="http://www.w3.org/2000/svg" >
	<symbol viewBox="0 0 479.5 459.2" id="icon-contact">
		<g>
			<path d="M109.1,336.3c0.7-0.4,1.5-0.8,2.4-1.3c-31.6-26.6-62.9-52.9-94.3-79.2c-5.1,43.9-10.3,87.7-15.4,131.6
				c0.8-0.3,1.7-0.4,2.5-0.8C39.2,369.8,74.1,353,109.1,336.3z"/>
			<path d="M193.5,357.4c-1.4-1.2-2.5-1-3.9-0.3c-8.4,4.3-16.9,8.5-25.3,12.8c-4.8,2.5-9.1,2-13.2-1.6c-7-6-14.2-11.8-21.1-17.9
				c-1.8-1.6-3.1-1.6-5.2-0.6c-14.1,6.9-28.3,13.6-42.4,20.4C55.7,383,29.2,395.9,2.5,408.5c-2.4,1.2-2.8,2.5-2.3,4.8
				c1.9,8.3,8.2,13.9,17.2,14.9c87.7,10.3,175.4,20.6,263.1,30.9c10.2,1.2,17.7-3.6,21.3-13.6c-0.5-0.5-0.9-0.9-1.4-1.3
				C264.8,415.3,229.1,386.4,193.5,357.4z"/>
			<path d="M474.8,362c-6.9-12-14.9-23.4-22.6-35c-8.4-12.7-16.5-25.6-25.5-37.8c-9.8-13.4-27.3-18.1-43-12.7
				c-9.7,3.3-15.7,10.4-21.2,18.6c-8.3,12.4-20.6,17.2-35.2,16.3c-3.1-0.2-6.1-0.8-8.9-1.7c-5.9-1.9-11.2-5.3-16.2-9
				c-1-0.8-2.1-1.6-3.1-2.4c-4.5-3.5-8.7-7.1-12.8-11c-13.2-12.6-24-27.1-33.3-42.9c-0.6-1-1.2-2-1.7-3c-10.4-18.3-18-37.5-19.3-58.8
				c-0.5-8.2,1.5-15.6,6.1-22.3c7-10.1,16.9-15.1,28.8-16.8c8.2-1.2,15.2-4.9,20.8-11c12.5-13.5,13.9-32.5,3.4-48.7
				c-14.2-21.8-28.7-43.4-43.1-65.1c-0.7-1-1.5-1.9-2.2-2.8c-5.3-6.7-12.4-10.7-20-14c-2.9-0.6-5.8-1.2-8.6-1.8
				c-12.3-0.8-22.4,4.4-32.1,11.2c-11,7.7-22.3,15.2-33.7,22.3c-13.6,8.5-21.4,20.8-25.3,36c-4.4,17.4-4.1,34.9-1.8,52.4
				c5.1,39.4,18.6,76.1,36,111.4c-38.9-4.6-77.8-9.1-116.6-13.7c-1.4-0.2-2.8-0.3-4.2-0.4c-7.7-0.3-15,4.5-17.9,11.5
				c-0.8,1.8-0.6,2.9,1,4.2c45.2,37.9,90.4,75.9,135.5,114c1.5,1.3,2.6,1.5,4.4,0.5c17.1-8.7,34.2-17.3,51.4-25.9
				c0.4-0.2,0.8-0.4,1.2-0.6c3.9,5.2,7.8,10.3,11.9,15.4c-5.4,2.7-10.8,5.4-16.2,8.2c31.6,25.6,62.9,50.9,94.5,76.5
				c0.2-2.1,0.5-4.2,0.7-6.3c7.7,5.6,15.6,10.9,23.9,15.7c14.6,8.5,29.9,15.5,46.7,18.1c15.7,2.5,30.4,0.2,43.8-9.2
				c12.6-8.8,25.6-17,38.3-25.5c3-2,5.8-4.3,8.4-6.7C479.7,397.4,483.4,377.2,474.8,362z"/>
		</g>
	</symbol>
</svg>
