
<svg xmlns="http://www.w3.org/2000/svg" >
	<symbol viewBox="0 0 381.6 381.7" id="icon-date">
		<g>
			<path d="M0,345.8c0-89.7,0-179.4,0-269c0.2-0.7,0.5-1.4,0.7-2.1c3.3-17.4,16-31.1,33.4-32.8c15.8-1.6,32-0.6,47.9-0.8l-0.1-0.1
				c0,18.1-0.1,36.3,0,54.4c0,7.9,5.8,13.5,13.3,13.6c7.7,0.1,13.6-5.6,13.7-13.6c0.1-18.1,0-36.2,0-54.4l-0.1,0.1
				c1.1-0.1,2.2-0.1,3.3-0.1c52.5,0,105,0,157.5,0c1.1,0,2.2,0.1,3.3,0.1c0,0-0.1-0.1-0.1-0.1c0,18.1-0.1,36.3,0,54.4
				c0,7.9,5.8,13.5,13.3,13.6c7.7,0.1,13.6-5.6,13.7-13.6c0.1-18.1,0-36.2,0-54.4l-0.1,0.1c13.3-0.1,26.6-0.2,39.9-0.1
				c24.6,0.1,42.2,17.7,42.2,42.3c0,85.3,0,170.7,0,256c0,3.6-0.3,7.2-1.1,10.7c-4.5,19.2-20.7,31.6-41.1,31.6
				c-90.3,0-180.6,0-270.9,0c-9.6,0-19.1,0.2-28.7-0.1c-13.1-0.4-23.6-6-31.6-16.4C3.7,359.4,1.7,352.7,0,345.8z M27.3,163.7
				c0,1.6,0,3,0,4.3c0,56.6,0,113.3,0,169.9c0,11.4,5,16.3,16.4,16.3c98.1,0,196.3,0,294.4,0c11.3,0,16.3-5,16.3-16.4
				c0-56.6,0-113.3,0-169.9c0-1.3,0-2.7,0-4.2C245.2,163.7,136.6,163.7,27.3,163.7z"/>
			<path d="M82.1,41.1c0-9.6-0.3-19.3,0-28.9C82.2,5.7,86.9,2.3,92.4,0c2,0,4,0,6,0c8.1,3,11.1,8.9,10.7,17.4
				c-0.4,7.9-0.2,15.8-0.3,23.7c0,0,0.1-0.1,0.1-0.1c-9,0-17.9,0-26.9,0L82.1,41.1z"/>
			<path d="M289.2,0c8.1,3,11.1,8.9,10.7,17.4c-0.4,7.9-0.2,15.8-0.3,23.7c0,0,0.1-0.1,0.1-0.1c-9,0-17.9,0-26.9,0
				c0,0,0.1,0.1,0.1,0.1c0-9.6-0.3-19.3,0-28.9c0.2-6.5,4.9-9.9,10.4-12.2C285.2,0,287.2,0,289.2,0z"/>
			<path d="M163.5,295.3c1.7-2.2,2.5-3.5,3.6-4.6c31.2-31.3,62.5-62.5,93.8-93.8c1.2-1.2,2.4-2.5,3.8-3.5c5.4-4,13-3.3,17.7,1.5
				c4.7,4.9,5.2,12.3,1,17.7c-1,1.3-2.1,2.4-3.3,3.6c-34.9,35-69.9,69.9-104.8,104.8c-8.1,8.1-15.3,8.1-23.4,0
				c-17-17-34.1-34.1-51.1-51.1c-4.1-4.1-6.4-8.8-4.7-14.7c2.7-9.3,13.6-12.9,21.3-7c1.2,0.9,2.2,2,3.3,3
				c13.3,13.3,26.5,26.5,39.8,39.8C161.3,292,161.9,293.2,163.5,295.3z"/>
		</g>
	</symbol>
</svg>
