<svg xmlns="http://www.w3.org/2000/svg" >
    <symbol viewBox="0 0 441.7 489.7" id="icon-file">
        <path d="M441.6229,331.3304c-.0115-16.742-.022-33.4907-.022-50.2509,0-16.6914,.0105-33.3723,.022-50.049,.0132-20.653,.0271-41.7489,.0192-62.8766-.0003-1.0695-.0014-2.1394-.0018-3.2089-.0049-10.1418-.0154-20.282-.0334-30.3835-.0034-2.0544-.0027-4.1069-.0068-6.1616,0-24.4712-14.0231-43.8633-35.9948-51.1524-3.6539-1.4076-7.519-2.4963-11.5824-3.2089-3.793-.6503-7.545-.657-11.1537-.657h-.1118c-22.8212-.1089-42.8081-.0779-61.0417,.095,.0019-1.9189,.0363-3.8417,.0697-5.7654,.1442-8.2917,.2941-16.8657-1.9891-25.4888-2.6376-10.0887-8.0635-19.0259-15.2372-26.0038C295.4147,6.5115,282.7383,.3212,269.1,.2c-50.4-.4-100.8-.1-151.3-.2-3.6,0-6.5,1.3-9.1,3.8C73.8,38.7,38.9,73.5,4,108.3c-2.8,2.8-4,6-4,10,.0012,.9209,.0003,1.8425,.0013,2.7634,0,.0128-.0016,.0248-.0016,.0377v.0062c.0012,.9678,.002,1.9402,.0031,2.9089,.0188,17.6982,.0267,35.4,.0258,53.1051,0,2.2955,0,4.592-.0003,6.8839-.0023,16.6721-.0085,33.3459-.0141,50.0201-.0071,21.3004-.0112,42.8898-.0002,64.5459,.0007,1.3258,.0014,2.6515,.0021,3.9773,.0111,18.3899,.034,36.8031,.0777,55.0994,.0033,1.4504,.0026,2.9019,.0062,4.3523,.0768,23.427,13.6726,42.0027,34.2448,49.4553,7.2173,2.9622,15.3035,4.611,24.0104,4.6663,23.3154,.1118,42.8922,.0793,61.5264-.0945-.021,1.7266-.0659,3.4559-.1112,5.1863-.2072,7.9461-.4211,16.1614,1.631,24.457,2.6273,10.4651,7.814,19.5453,14.8051,26.644,9.4988,10.6149,23.1336,17.0232,38.7935,17.0856,71.4,.3,142.8,.4,214.1,0,30.1-.2,52.4-23.4,52.5-53.5,.0072-3.6899,.0069-7.3802,.0121-11.0701,.0128-7.899,.0212-15.8185,.026-23.746,.001-2.1295,.0031-4.2591,.0037-6.3887,.0082-21.2846-.0057-42.549-.019-63.3647Zm-321.8353-41.5485c0,8.0167-.0062,16.0344-.0124,24.0511-.0177,23.5966-.0363,47.9925,.1089,71.9711-10.1663-.0945-20.4181-.1184-30.5505-.1184-5.1591,0-10.2875,.0067-15.3578,.0124-5.1624,.0067-10.3281,.0124-15.5001,.0124-17.3107,0-28.0643-10.6036-28.0643-27.6808-.0492-37.3019-.0492-75.2303-.0492-111.9096,0-36.42,0-74.0724-.0477-111.1232,11.2076,.1365,22.6073,.1174,33.6392,.1003,3.8169-.0062,7.6314-.0125,11.454-.0125,34.7665-.106,59.0479-24.3534,59.0479-58.9652V30.7502c17.2634,.0344,34.7604,.0115,51.6977-.011,26.1448-.0358,53.1797-.0712,79.7968,.1055,14.4931,.0812,25.1971,11.1375,25.453,26.2905,.0372,2.2026,.0143,4.473-.0086,6.6688-.0334,3.1566-.0668,6.4125,.0754,9.6693-8.2498-.0917-16.5902-.0917-24.6614-.0917-8.2307,0-16.742,0-25.0825-.097-6.1288-.1179-11.0496,1.8865-15.4892,6.3256-37.9575,38.0687-69.7709,69.8506-100.128,100.0301-4.3793,4.3794-6.4191,9.2687-6.4191,15.4023,.0978,31.5775,.0978,63.6874,.0978,94.7393ZM52.4489,104.6675c8.4594-8.5033,16.8824-16.9813,25.3327-25.4869,8.7038-8.7601,17.4348-17.548,26.2623-26.4208,.073,9.1016,.1083,17.8307-.0965,26.5703l-.0005,.0186c-.2535,12.9251-8.9602,23.0747-21.1424,24.6776-9.0194,1.1277-18.0312,.922-27.5724,.7033-.9216-.021-1.8502-.0425-2.7832-.0621Zm171.093,48.9106l-.001,.0291c-.4068,12.8349-11.3279,23.4763-24.3658,23.7222-8.7745,.2015-17.6344,.1704-26.2265,.1322,8.4598-8.5257,16.9344-17.0557,25.4224-25.5995,8.4202-8.4756,16.8542-16.965,25.3026-25.4788,.1155,8.9764,.2063,18.2012-.1318,27.1948Zm-26.9456,54.2593c33.2396-.3184,57.4426-24.658,57.5495-57.8585,.1099-17.358,.0774-32.5415-.0993-46.4789,41.9974,.1915,85.4205,.3901,128.0491-.0005,.1184-.0014,.2358-.0019,.3533-.0019,8.3242,0,15.5035,2.799,20.7795,8.1055,5.3238,5.3549,8.1858,12.8688,8.0588,21.1744-.4193,35.3705-.3371,71.3557-.2588,106.1561,.0315,14.1517,.064,28.2992,.064,42.439v149.0253c0,17.5729-10.4919,28.0648-28.0648,28.0648H178.166c-17.3112,0-28.0648-10.6037-28.0648-27.6799-.0491-37.2532-.0491-75.1625-.0491-111.8237,0-36.4148,0-74.0609-.0478-111.1117,15.4701,.1848,31.145,.1824,46.5921-.0101Z"/>
    </symbol>


</svg>