<svg xmlns="http://www.w3.org/2000/svg">
    <symbol viewBox="0 0 407.7089 340.9346"id="icon-home">
        <path d="M0,156.4583C46.2216,120.8684,92.4393,85.2734,138.6665,49.6909c20.9558-16.1303,41.9638-32.1931,62.8477-48.4159,2.2143-1.7201,3.4384-1.6845,5.6337,.0148,27.1113,20.986,54.319,41.8474,81.5026,62.74,.7083,.5444,1.4257,1.077,2.8509,2.1523,0-7.9433,0-15.1611,0-22.3789q0-6.0894,6.0633-6.0895c16.4918,0,32.9844,.0803,49.4748-.0733,2.9994-.0279,3.7863,.7581,3.769,3.7554-.1289,22.3431-.0252,44.6875-.1315,67.0308-.0121,2.5507,.7965,4.0741,2.8047,5.603,17.4464,13.2816,34.768,26.7273,52.226,39.9934,2.4477,1.86,2.6273,2.9806,.6631,5.4465-7.8645,9.8731-15.5971,19.8596-23.0714,30.0299-2.24,3.048-3.4715,3.2159-6.5095,.869-56.368-43.5455-112.8569-86.9343-169.25-130.4475-2.3943-1.8475-3.7804-2.0481-6.2985-.1041-56.2768,43.4462-112.6391,86.7816-168.9838,130.1399q-4.0396,3.1086-7.217-1.0105c-7.4569-9.6882-14.8984-19.3883-22.3798-29.0575-.7582-.9799-1.1866-2.3536-2.6608-2.632v-.7981Z"/><path d="M63.81,268.1615c0-23.0058,.0211-46.0116-.0352-69.0173-.0052-2.1205,.4128-3.609,2.252-5.0198,45.2273-34.6952,90.4144-69.4428,135.5253-104.2891,2.2759-1.7581,3.4865-1.5647,5.6278,.0882,45.0181,34.7491,90.0971,69.4192,135.2065,104.0497,1.7351,1.3321,2.5095,2.6369,2.5061,4.8914-.0706,46.2774-.0791,92.5551,.0131,138.8324,.0054,2.7064-.8232,3.2052-3.3213,3.1994-33.777-.0795-67.5545-.1078-101.3311,.0354-3.1883,.0135-3.5843-1.003-3.5764-3.7899,.0934-32.8462,.0251-65.6928,.1197-98.5389,.0085-2.939-.4707-4.065-3.8086-4.0281-17.5514,.1937-35.1067,.1677-52.6588,.0159-2.9697-.0257-3.7512,.6719-3.7401,3.6985,.1201,32.8457,.0204,65.6923,.1591,98.5378,.014,3.3063-.749,4.1143-4.0828,4.1012-34.9735-.1379-69.9479-.1433-104.9213,.0063-3.4342,.0147-4.034-.9527-4.0132-4.155,.1483-22.8719,.0792-45.7451,.0792-68.6179Z"/>
    </symbol>
</svg>