<svg xmlns="http://www.w3.org/2000/svg" >
	<style type="text/css">
		.stnew{fill:none;}
	</style>
	<symbol viewBox="0 0 343.9 357.9" id="icon-list">
		<g>
			<path class="stnew" d="M251.9,144c-19.8-0.1-39.7,0-59.5,0c-19.5,0-38.9,0-58.4,0c-1.6,0-3.3,0-4.8,0.4c-6,1.5-9.9,7.2-9,13.3
				c0.9,6.1,6,10.3,12.7,10.3c39.4,0,78.9,0,118.3,0c1.2,0,2.5-0.1,3.7-0.4c5.9-1.5,9.7-7,9.1-12.9C263.2,148.6,258.2,144,251.9,144z"
				/>
			<path class="stnew" d="M132.6,95.9c19.7,0.1,39.4,0,59.2,0c19.7,0,39.4,0,59.2,0c5.6,0,9.7-2.3,12-7.3c3.6-8-2.4-16.7-11.6-16.7
				c-25.7-0.1-51.4,0-77.1,0c-13.9,0-27.7,0-41.6,0c-5.6,0-9.9,2.9-11.8,7.6C117.6,87.7,123.5,95.9,132.6,95.9z"/>
			<path class="stnew" d="M84.2,204c-8.1-0.1-16.2-0.1-24.3,0c-6.7,0.1-11.8,5.1-11.8,11.9c-0.1,8-0.1,16,0,23.9
				c0.1,6.9,5.2,11.9,12.1,12.1c3.9,0.1,7.7,0,11.6,0c4.1,0,8.2,0.1,12.3,0c6.6-0.2,11.7-5.1,11.8-11.6c0.2-8.2,0.2-16.5,0-24.7
				C95.8,209.1,90.7,204.1,84.2,204z"/>
			<path class="stnew" d="M59.6,107.9c8.2,0.2,16.5,0.2,24.7,0c6.5-0.1,11.6-5.2,11.7-11.7c0.1-8.1,0.1-16.2,0-24.3
				C95.8,65.2,90.7,60.2,84,60c-4-0.1-8,0-12,0c-4.1,0-8.2-0.1-12.3,0c-6.5,0.2-11.6,5.2-11.7,11.7c-0.1,8.2-0.2,16.5,0,24.7
				C48.2,102.7,53.2,107.8,59.6,107.9z"/>
			<path class="stnew" d="M96,144.7C95.9,137,91,132,83.4,132c-7.6-0.1-15.2-0.1-22.8,0c-7.5,0.1-12.5,5-12.6,12.4
				c-0.1,7.7-0.1,15.5,0,23.2c0.1,7.2,5.1,12.3,12.2,12.4c7.9,0.1,15.7,0.1,23.6,0c7.1-0.1,12.1-5.2,12.2-12.4c0.1-3.7,0-7.5,0-11.2
				C96,152.4,96,148.6,96,144.7z"/>
			<path class="stnew" d="M251,239.9c5.6,0,9.7-2.3,12-7.4c3.6-8-2.5-16.6-11.7-16.6c-28.2,0-56.4,0-84.6,0c-11.4,0-22.7,0-34.1,0
				c-5.6,0-9.9,2.9-11.7,7.6c-3.1,8.1,2.8,16.3,11.9,16.3c19.7,0.1,39.4,0,59.2,0C211.5,239.9,231.2,239.9,251,239.9z"/>
			<path d="M275,357.9c3.4,0,6.7-0.3,10-1.2c16.5-4.5,26.9-18.4,26.9-36.1c0-8.5,0-17.6,0-27.1c-18.8,21.5-37.5,42.9-56.3,64.4
				C262,357.9,268.5,357.9,275,357.9z"/>
			<path d="M203.5,336.3c-7.2-7.6-14.3-15.3-21.5-22.9c-2.1-2.2-5-5.3-6.5-9.7l-0.5-1.4v-6l0.4-1.3c1.5-5.1,4.4-8.8,8.4-11.1
				c7.1-4,15.8-2.6,21.6,3.5c2.8,2.9,5.5,5.9,8.3,8.8l25.7,27.4c0.6-0.7,1.2-1.4,1.8-2.1l16.3-18.7c18.1-20.7,36.3-41.5,54.4-62.2
				c0-69,0-147.4,0-202.9c0-22.4-15.4-37.7-38-37.7C195.4,0,116.8,0,38.2,0C15.2,0,0,15.2,0,38.2c0,39.1,0,78.2,0,117.3
				C0,195.2,0,281,0,320.7c0,21.5,15.6,37.2,37,37.2c62.3,0,124.5,0,186.8,0c-2.7-2.9-5.5-5.8-8.2-8.7L203.5,336.3z M48,71.7
				c0.1-6.6,5.1-11.5,11.7-11.7c4.1-0.1,8.2,0,12.3,0c4,0,8-0.1,12,0c6.7,0.2,11.8,5.2,11.9,11.9c0.1,8.1,0.1,16.2,0,24.3
				c-0.1,6.5-5.2,11.6-11.7,11.7c-8.2,0.1-16.5,0.2-24.7,0c-6.3-0.1-11.4-5.2-11.5-11.5C47.9,88.2,47.9,80,48,71.7z M96,167.5
				c-0.1,7.2-5.1,12.3-12.2,12.4c-7.9,0.1-15.7,0.1-23.6,0c-7.1-0.1-12.1-5.2-12.2-12.4c-0.1-7.7-0.1-15.5,0-23.2
				c0.1-7.4,5.1-12.3,12.6-12.4c7.6-0.1,15.2-0.1,22.8,0C91,132,95.9,137,96,144.7c0,3.9,0,7.7,0,11.6C96,160.1,96,163.8,96,167.5z
				M95.9,240.3c-0.1,6.5-5.3,11.4-11.8,11.6c-4.1,0.1-8.2,0-12.3,0c-3.9,0-7.7,0.1-11.6,0c-7-0.1-12-5.1-12.1-12.1
				c-0.1-8-0.1-16,0-23.9c0.1-6.8,5.1-11.8,11.8-11.9c8.1-0.1,16.2-0.1,24.3,0c6.5,0.1,11.6,5.1,11.7,11.7
				C96.1,223.8,96.1,232.1,95.9,240.3z M120.8,79.6c1.9-4.7,6.2-7.6,11.8-7.6c13.9,0,27.7,0,41.6,0c25.7,0,51.4,0,77.1,0
				c9.2,0,15.2,8.6,11.6,16.7c-2.3,5.1-6.4,7.3-12,7.3c-19.7,0-39.4,0-59.2,0c-19.7,0-39.4,0-59.2,0C123.5,95.9,117.6,87.7,120.8,79.6
				z M254.8,167.5c-1.2,0.3-2.5,0.4-3.7,0.4c-39.4,0-78.9,0-118.3,0c-6.7,0-11.8-4.2-12.7-10.3c-0.9-6,3-11.8,9-13.3
				c1.5-0.4,3.2-0.4,4.8-0.4c19.5,0,38.9,0,58.4,0c19.8,0,39.7,0,59.5,0c6.3,0,11.3,4.7,12,10.7C264.5,160.5,260.7,166,254.8,167.5z
				M132.6,239.9c-9.1,0-15-8.2-11.9-16.3c1.8-4.8,6.2-7.6,11.7-7.6c11.4,0,22.7,0,34.1,0c28.2,0,56.4,0,84.6,0
				c9.2,0,15.3,8.6,11.7,16.6c-2.3,5.1-6.4,7.4-12,7.4c-19.7,0-39.4,0-59.2,0C172.1,239.9,152.4,239.9,132.6,239.9z"/>
			<path d="M341.4,246.2c1.4-1.6,2.5-3.5,2.6-5.7c0.2-3.6-1.9-6.8-5.3-8.2c-3.4-1.4-7.1-0.4-9.8,2.7c-5.6,6.4-11.3,12.9-16.9,19.3
				c0,8.7,0,17.3,0,25.6C321.7,268.7,331.5,257.4,341.4,246.2z"/>
			<path d="M239.6,337c-9.7-10.4-19.4-20.7-29-31c-3.9-4.1-7.7-8.3-11.7-12.4c-3-3.2-7.1-3.9-10.6-1.9c-2.3,1.3-3.5,3.4-4.2,5.9
				c0,1,0,2.1,0,3.1c0.9,2.6,2.7,4.6,4.6,6.5c9.8,10.4,19.6,20.9,29.4,31.3c5.1,5.4,10.2,10.9,15.3,16.3c2.8,3,6.3,3.8,9.8,2.4
				c2-0.8,3.2-2.4,4.6-3.9c20.8-23.8,41.7-47.6,62.5-71.5c0.6-0.7,1.2-1.4,1.8-2c0-8.3,0-16.8,0-25.6c-21.3,24.4-42.7,48.8-64,73.1
				C245.1,330.6,242.4,333.8,239.6,337z"/>
		</g>
	</symbol>
</svg>
