
<svg xmlns="http://www.w3.org/2000/svg" >
	<symbol viewBox="0 0 64.1 53.8" id="icon-multi-users">
		<g>
			<path d="M0,30c0.3-1,0.4-2,0.8-3c1.8-4.2,4.9-6.7,9.4-7.5c1.9-0.3,3.8-0.1,5.7-0.1c1.5,0,3,0,4.4,0c0.3,0,0.4,0.1,0.5,0.4
				c0.2,2.9,1.3,5.3,3.3,7.4c0.1,0.1,0.1,0.1,0.2,0.2c-1.7,0.5-3.2,1.3-4.5,2.3c-3.5,2.8-5.4,6.4-5.6,10.9c0,0.9-0.1,1.8,0,2.6
				c0,0.6-0.1,0.7-0.7,0.7c-4.1-0.3-8.1-1.1-12.1-2.3c-0.5-0.1-1-0.3-1.4-0.4C0,37.5,0,33.8,0,30z"/>
			<path d="M48.5,45.1c0,1.7,0,3.4,0,5.1c0,0.5-0.2,0.7-0.6,0.9c-2.4,1.1-5,1.8-7.6,2.2c-7.7,1.2-15.2,0.3-22.7-1.9
				c-1.2-0.4-1.2-0.4-1.2-1.6c0-3,0-6,0-9.1c0.1-6.1,5.1-11.2,11.2-11.5c3.3-0.2,6.6-0.3,9.9,0c4.8,0.5,8.1,3.1,10,7.5
				c0.6,1.5,0.8,3.1,0.9,4.7C48.5,42.6,48.5,43.9,48.5,45.1z"/>
			<path d="M40.5,27.4c1-1,1.7-2,2.3-3.2c0.6-1.3,1.1-2.7,1.1-4.2c0-0.5,0.1-0.7,0.7-0.7c2.4,0,4.7,0,7.1,0c7,0,12.2,5.3,12.2,12.2
				c0,3,0,6,0,9c0,0.4-0.1,0.5-0.4,0.7c-2.5,1.2-5.2,1.9-8,2.3c-1.4,0.2-2.9,0.3-4.3,0.4c-0.4,0-0.5-0.1-0.5-0.5
				c0-1.6,0.1-3.1-0.2-4.7c-1-5.5-4.1-9.2-9.3-11.2c-0.2-0.1-0.4-0.1-0.5-0.2C40.6,27.5,40.6,27.5,40.5,27.4z"/>
			<path d="M23.1,19c0-5.2,4.2-9.4,9.4-9.4c5.1,0,9.4,4.2,9.4,9.4c0,5.2-4.2,9.4-9.4,9.4C27.2,28.4,23.1,24.2,23.1,19z"/>
			<path d="M16,0c5.2,0,9.4,4.2,9.4,9.3c0,0.4-0.1,0.7-0.4,1c-2,1.7-3.3,3.9-3.8,6.5c-0.1,0.4-0.3,0.6-0.7,0.8
				c-5.6,3-12.5-0.2-13.7-6.4C5.7,5.4,10.1,0,16,0z"/>
			<path d="M57.4,9.4c0,6.6-6.8,11.2-12.9,8.6c-0.3-0.1-0.5-0.3-0.5-0.7c-0.5-3.4-2.2-6-5-7.9c-0.4-0.3-0.3-0.6-0.3-0.9
				C39.1,3.7,43.1,0,48,0C53.2,0,57.4,4.2,57.4,9.4z"/>
		</g>
	</symbol>
</svg>
