<svg xmlns="http://www.w3.org/2000/svg" >
    <symbol viewBox="0 0 398.4 398" id="icon-newspaper">
        <path d="M49.7188,109.6079V59.8882H397.7559v225.0972c0,6.6035-1.293,12.8516-3.8843,18.7422-2.5884,5.8936-6.0513,11.0068-10.3906,15.3428-4.3364,4.3398-9.4497,7.8027-15.3433,10.3906-5.8901,2.5918-12.1387,3.8848-18.7417,3.8848H49.7187c-6.7305,0-13.1396-1.3262-19.2266-3.9814-6.085-2.6523-11.3623-6.2148-15.8291-10.6816-4.4668-4.4678-8.0264-9.7109-10.6816-15.7324C1.3291,296.9297,0,290.4902,0,283.626V109.6079H49.7188Zm-24.8594,174.0181c0,3.4961,.6494,6.7344,1.9424,9.7109,1.2959,2.9795,3.0771,5.6016,5.3408,7.8652,2.2666,2.2676,4.8887,4.0488,7.8662,5.3418,2.9795,1.2959,6.2148,1.9414,9.71,1.9414H349.396c3.2378,0,6.2817-.6123,9.1279-1.8447,2.8496-1.2285,5.3413-2.9131,7.4775-5.0498,2.1362-2.1357,3.8203-4.6279,5.0498-7.4775,1.2319-2.8457,1.8447-5.8896,1.8447-9.1279V84.748H74.5791v186.4482c0,3.3682-1.2295,6.2812-3.6904,8.7393-2.458,2.4619-5.3711,3.6904-8.7393,3.6904-3.3652,0-6.2793-1.2285-8.7402-3.6904-2.458-2.458-3.6904-5.3711-3.6904-8.7393V134.4673H24.8594v149.1587ZM99.4385,109.6079h248.5977v24.8594H99.4385v-24.8594Zm124.2988,49.1367h124.2988v124.8813h-124.2988v-124.8813Zm99.4395,24.8599h-74.5796v75.1621h74.5796v-75.1621Zm-223.7383-24.2773h99.4395v24.8599H99.4385v-24.8599Zm0,49.7197h99.4395v24.8594H99.4385v-24.8594Zm0,49.7197h99.4395v24.8594H99.4385v-24.8594Z"/>
    </symbol>
</svg>