<svg xmlns="http://www.w3.org/2000/svg" >
<style type="text/css">
	.st0{display:none;}
	.st1{display:inline;}
	.st2{fill:#393C41;}
</style>
	<symbol viewBox="0 0 455.8 514.5" id="icon-person-check">
		<g class="st0">
			<g class="st1">
			</g>
		</g>
		<g>
			<path class="st2" d="M298.5,230.8c52.8-52.8,52.8-138.4,0-191.2c-25.8-25.8-59.5-39-93.4-39.6h-4.5c-33.9,0.6-67.5,13.7-93.4,39.6
				c-52.8,52.8-52.8,138.4,0,191.2C160.1,283.6,245.7,283.6,298.5,230.8z"/>
			<path class="st2" d="M245,360.6c0-22,6.1-42.6,16.7-60.2c-17.5-2.8-36.6-4.3-57.1-4.3C68.4,296.1,0,356.6,0,431.3v9.8V508
				c0,3.5,2.9,6.4,6.4,6.4h392.8c3.5,0,6.4-2.9,6.4-6.4v-38.7c-13.5,5.4-28.2,8.4-43.5,8.4C297.5,477.8,245,425.2,245,360.6z"/>
			<path class="st2" d="M362.2,266.9c-51.7,0-93.7,41.9-93.7,93.7c0,51.7,41.9,93.7,93.7,93.7c51.8,0,93.7-41.9,93.7-93.7
				C455.8,308.8,413.9,266.9,362.2,266.9z M361.4,411.1c-5.9,5.9-15.6,5.9-21.5,0l-0.5-0.5L310,381.2c-5.9-5.9-5.9-15.6,0-21.5
				c5.9-5.9,15.6-5.9,21.5,0l18.7,18.7l57.8-57.8c5.9-5.9,15.6-5.9,21.5,0c5.9,5.9,5.9,15.6,0,21.5
				C429.4,342.1,362.6,409.9,361.4,411.1z"/>
		</g>
	</symbol>
</svg>
