<svg xmlns="http://www.w3.org/2000/svg" style="display:none;">
    <symbol viewBox="0 0 408.7148 408.7004" id="icon-add">
        <path d="M193.2226,0h23.9532c5.1276,.6122,10.2719,1.11,15.3803,1.8542,51.3334,7.4779,94.397,30.5353,127.7093,70.2571,42.2643,50.3964,56.8659,108.613,44.1359,173.0267-9.064,45.8638-32.1299,84.2356-67.7283,114.5604-43.7767,37.2916-94.6817,53.3507-151.9475,47.9981-33.408-3.1226-64.2717-14.2878-92.047-33.1862C44.1749,341.5087,13.9319,296.3002,3.1742,238.4164c-1.4029-7.5484-2.1326-15.2219-3.1742-22.8375v-23.9532c.2375-1.1572,.6067-2.3046,.6931-3.473,2.0777-28.1059,9.5607-54.7223,23.25-79.321C56.1403,50.9758,104.8627,15.6286,169.9841,3.1873,177.6533,1.7221,185.4728,1.0433,193.2226,0Zm35.9298,179.6494v-4.6978c0-14.9009,.0018-29.8018-.0006-44.7027-.0018-11.4417,.1999-22.8883-.0624-34.3241-.3909-17.0444-16.1093-27.9995-31.975-22.5276-9.7816,3.3735-15.8333,12.3792-15.8537,23.8926-.0459,25.9435-.0147,51.8871-.0149,77.8307,0,1.4139,0,2.8277,0,4.5288-1.9153,0-3.3563,0-4.7973,0-25.2783,0-50.5567-.0037-75.835,.0063-2.2602,.0009-4.5353-.06-6.778,.1636-15.9055,1.5859-25.6724,16.9175-20.4132,31.9646,3.4123,9.7628,12.3996,15.7407,23.9671,15.7586,26.4757,.0409,52.9515,.0132,79.4272,.0133h4.4292v4.8969c0,25.8105-.0055,51.621,.0107,77.4316,.0013,1.9921-.0021,4.0053,.263,5.9728,2.0861,15.4862,17.2381,24.7068,31.9571,19.4971,9.5884-3.3938,15.6334-12.3769,15.657-23.6422,.0558-26.6087,.0183-53.2175,.0186-79.8263v-4.3297c20.9742,0,41.3236,.0018,61.6731-.001,7.4504-.001,14.9083,.2008,22.3497-.0618,18.8218-.6644,29.7773-20.2554,20.211-36.1807-4.9608-8.2583-12.6872-11.6884-22.1737-11.6756-27.1376,.0367-54.2753,.0129-82.0601,.0129Z"/>
    </symbol>

    <symbol viewBox="0 0 407.7089 340.9346" id="icon-home">
        <path d="M0,156.4583C46.2216,120.8684,92.4393,85.2734,138.6665,49.6909c20.9558-16.1303,41.9638-32.1931,62.8477-48.4159,2.2143-1.7201,3.4384-1.6845,5.6337,.0148,27.1113,20.986,54.319,41.8474,81.5026,62.74,.7083,.5444,1.4257,1.077,2.8509,2.1523,0-7.9433,0-15.1611,0-22.3789q0-6.0894,6.0633-6.0895c16.4918,0,32.9844,.0803,49.4748-.0733,2.9994-.0279,3.7863,.7581,3.769,3.7554-.1289,22.3431-.0252,44.6875-.1315,67.0308-.0121,2.5507,.7965,4.0741,2.8047,5.603,17.4464,13.2816,34.768,26.7273,52.226,39.9934,2.4477,1.86,2.6273,2.9806,.6631,5.4465-7.8645,9.8731-15.5971,19.8596-23.0714,30.0299-2.24,3.048-3.4715,3.2159-6.5095,.869-56.368-43.5455-112.8569-86.9343-169.25-130.4475-2.3943-1.8475-3.7804-2.0481-6.2985-.1041-56.2768,43.4462-112.6391,86.7816-168.9838,130.1399q-4.0396,3.1086-7.217-1.0105c-7.4569-9.6882-14.8984-19.3883-22.3798-29.0575-.7582-.9799-1.1866-2.3536-2.6608-2.632v-.7981Z"/><path d="M63.81,268.1615c0-23.0058,.0211-46.0116-.0352-69.0173-.0052-2.1205,.4128-3.609,2.252-5.0198,45.2273-34.6952,90.4144-69.4428,135.5253-104.2891,2.2759-1.7581,3.4865-1.5647,5.6278,.0882,45.0181,34.7491,90.0971,69.4192,135.2065,104.0497,1.7351,1.3321,2.5095,2.6369,2.5061,4.8914-.0706,46.2774-.0791,92.5551,.0131,138.8324,.0054,2.7064-.8232,3.2052-3.3213,3.1994-33.777-.0795-67.5545-.1078-101.3311,.0354-3.1883,.0135-3.5843-1.003-3.5764-3.7899,.0934-32.8462,.0251-65.6928,.1197-98.5389,.0085-2.939-.4707-4.065-3.8086-4.0281-17.5514,.1937-35.1067,.1677-52.6588,.0159-2.9697-.0257-3.7512,.6719-3.7401,3.6985,.1201,32.8457,.0204,65.6923,.1591,98.5378,.014,3.3063-.749,4.1143-4.0828,4.1012-34.9735-.1379-69.9479-.1433-104.9213,.0063-3.4342,.0147-4.034-.9527-4.0132-4.155,.1483-22.8719,.0792-45.7451,.0792-68.6179Z"/>
    </symbol>

    <symbol viewBox="0 0 46.9 64" id="icon-business-person">
        <path d="M23.4,27.5c7.5,0,13.8-6.2,13.8-13.8C37.2,6.2,31,0,23.4,0C15.8,0,9.7,6.2,9.7,13.8C9.7,21.3,15.9,27.4,23.4,27.5z"/>
        <path d="M46.9,46.3c0-3.1-0.6-6.1-2.2-8.8c-3.5-6-8.8-9-15.7-9.1c-3.7,0-7.3,0-11,0c-4.8,0-9.1,1.6-12.6,5
        c-3.3,3.2-5.2,7.1-5.3,11.7C-0.1,50,0.1,55,0,60c0,0.4,0.1,0.6,0.5,0.7c17.5,4.2,32,4.7,45.8-0.1c0.4-0.2,0.5-0.4,0.5-0.8
        C46.8,55.2,46.8,50.8,46.9,46.3z M26,56.4c-0.7,1-1.4,2-2.1,3.1c-0.3,0.4-0.4,0.5-0.7,0c-0.6-1-1.3-2.1-2-3.1
        c-0.3-0.4-0.1-0.9-0.1-1.3c0.3-4.9,0.7-9.9,1-14.8c0-0.6,0.1-1.3,0.1-1.9c0-0.4,0.2-0.5,0.5-0.5c0.6,0,1.2,0,1.8,0
        c0.3,0,0.5,0.1,0.5,0.5c0.3,4.3,0.6,8.6,0.9,12.9c0.1,1.4,0.2,2.9,0.3,4.3C26.2,55.9,26.1,56.1,26,56.4z M27.2,32.7
        c-0.7,1.4-1.3,2.8-2,4.3c-0.1,0.3-0.3,0.4-0.7,0.4c-0.8,0-1.7,0.2-2.4-0.1c-0.6-0.3-0.8-1.3-1.1-2c-0.4-0.9-0.8-1.7-1.3-2.6
        c-0.4-0.8,0-1.3,0.8-1.3c1,0,1.9,0,2.9,0c0.9,0,1.8,0,2.8,0C27.3,31.3,27.6,31.9,27.2,32.7z"/>	
	</symbol>

    <symbol viewBox="0 0 398.4 398" id="icon-calendar">
		<path d="M49.8,61.9V12.1C50,5.2,55.7-0.2,62.6,0c6.6,0.2,11.9,5.5,12.1,12.1v49.8c-0.2,6.9-5.9,12.3-12.8,12.1
		C55.3,73.8,50,68.5,49.8,61.9z M261.4,74.3c6.9,0,12.4-5.6,12.5-12.4c0,0,0,0,0,0V12.1C273.7,5.2,268-0.2,261.1,0
		c-6.6,0.2-11.9,5.5-12.1,12.1v49.8C249,68.8,254.6,74.3,261.4,74.3C261.4,74.3,261.4,74.3,261.4,74.3z M398.4,298.4
		c0,55-44.6,99.6-99.6,99.6s-99.6-44.6-99.6-99.6c0-55,44.6-99.6,99.6-99.6S398.4,243.4,398.4,298.4L398.4,298.4z M373.5,298.4
		c0-41.2-33.4-74.7-74.7-74.7c-41.2,0-74.7,33.4-74.7,74.7c0,41.2,33.4,74.7,74.7,74.7c0,0,0,0,0,0C340,373,373.4,339.6,373.5,298.4
		L373.5,298.4z M99.6,149H49.8v49.8h49.8V149z M49.8,273.5h49.8v-49.8H49.8V273.5z M124.5,198.8h49.8V149h-49.8V198.8z M124.5,273.5
		h49.8v-49.8h-49.8V273.5z M24.9,295.9V124.1h273.8v49.8h24.9V76.8c0.1-15-11.9-27.3-26.9-27.4c0,0,0,0-0.1,0h-10.3v12.4
		c0,13.7-11.1,24.9-24.9,24.9c-13.7,0-24.9-11.1-24.9-24.9V49.4H87.2v12.4c0,13.7-11.1,24.9-24.9,24.9S37.4,75.6,37.4,61.9V49.4H27
		C12,49.5-0.1,61.8,0,76.8c0,0,0,0,0,0v219.1c-0.1,15,12,27.3,27,27.4h147.3v-24.9H27C25.8,298.2,24.9,297.1,24.9,295.9z M249,198.8
		V149h-49.8v49.8H249z M336.1,298.4h-37.3V261c-0.2-6.9-5.9-12.3-12.8-12.1c-6.6,0.2-11.9,5.5-12.1,12.1v49.8
		c0,6.9,5.6,12.4,12.4,12.5c0,0,0,0,0,0h49.8c6.9-0.2,12.3-5.9,12.1-12.8C348,303.9,342.7,298.5,336.1,298.4L336.1,298.4z"/>
	</symbol>

    <symbol viewBox="0 0 350 351.6" id="icon-cog">
		<g>
			<path d="M350.1,150.4c0-5-2.2-7.5-7-8.7c-1-0.2-2-0.4-3-0.6c-11.4-1.8-22.7-3.5-34.1-5.2c-2.8-0.4-4.2-1.6-5.1-4.2
				c-1-2.9-1.9-5.9-3.2-8.6c-5.1-10.5-5.6-7.5,2-17.5c5.4-7.1,10.8-14.1,16.2-21.2c3.6-4.7,3.8-9,0.8-13.2c-2.4-3.2-4.7-6.5-7.6-9.2
				c-9.3-9.1-18.1-18.7-27.8-27.2c-6-5.3-9.5-5.6-16-0.8c-8.9,6.7-18,13.3-26.7,20.2c-2.2,1.8-4.3,2.1-6.9,0.9
				c-3.5-1.7-6.9-3.6-10.7-4.5c-4.2-1-5.7-3.4-6.3-7.6c-1.6-11.6-3.3-23.2-5.2-34.8c-0.7-4.1-2.5-7.3-7.2-7.7c-18.5,0-36.9,0-55.4,0
				c-3.7,0.7-5.5,3.3-6.3,6.7c-0.5,2-1,4-1.4,6c-2.1,10.6-3.2,21.4-4.6,32.1c-0.3,2.4-1.2,3.7-3.5,4.4c-4.6,1.5-9,3.3-13.2,5.5
				c-2.8,1.4-4.8,0.9-7.1-0.9c-8.3-6.6-16.7-13-25.1-19.5c-8-6.2-10.3-5.1-18.1,0.5c-0.4,0.3-0.7,0.6-1,0.9
				c-10.5,8.3-19.2,18.4-28.5,28c-1.7,1.8-3.3,3.8-4.8,5.8c-4.5,6.3-4.5,9.1,0.4,15.2c6.7,8.3,13.3,16.7,19.8,25.3
				c2.2,2.9,2.4,5.4,0.8,8.4c-2.1,3.9-4,8-5.3,12.2c-0.8,2.5-2.3,3.6-4.9,4c-12,1.7-23.9,3.6-35.8,5.4c-4.4,0.7-7.4,2.6-8.4,7.1
				c0,18.2,0,36.5,0,54.7c0.5,3.7,2.4,6.3,6.2,7.1c1,0.2,2,0.5,3,0.6c11.2,1.6,22.3,3.3,33.5,4.9c2.3,0.3,4.8,0.3,5.8,3.3
				c1.8,5.5,4,10.9,6.7,16c1.1,2,0.8,3.9-0.7,5.7c-2,2.5-3.8,5.1-5.8,7.6c-4.9,6.3-9.8,12.6-14.6,19c-4.1,5.4-4,9.4,0.1,14.9
				c0.5,0.7,1.1,1.5,1.7,2.2c8.3,10.2,18.1,18.9,27.5,28c2.2,2.1,4.4,4.2,6.8,6.2c4.3,3.5,7.8,3.7,12.5,0.9c1.1-0.7,2.1-1.4,3.1-2.2
				c8.4-6.3,16.7-12.6,25-19c2.8-2.2,5.3-2.6,8.4-0.9c3.2,1.7,6.6,3.3,10.1,4.2c3.9,1,5.3,3.4,5.8,7.3c1.6,11.8,3.3,23.7,5.4,35.5
				c1,5.6,3.5,7.6,9.2,7.6c17.1,0,34.2,0,51.3,0c3.8,0,6.3-1.7,7.7-5.1c0.7-1.6,1.1-3.2,1.4-4.9c2.4-11.5,3.8-23.2,5.2-34.8
				c0.3-2.7,1.4-4.1,3.9-4.9c4.5-1.4,8.7-3.3,12.9-5.4c2.5-1.2,4.3-1.1,6.5,0.7c8.8,6.9,17.5,13.8,26.4,20.6c5.3,4.1,8.4,4.3,14,0.9
				c1.5-0.9,2.8-1.9,4.2-3c11.5-9.4,21.5-20.3,31.3-31.4c7.2-8.2,7.3-11.1,0.5-19.5c-6.6-8.2-13-16.4-19.3-24.8
				c-1.6-2.1-2-3.9-0.6-6.2c2.2-3.9,3.9-8,5.3-12.2c1-3.1,2.7-4.5,6.1-5c12-1.6,23.9-3.4,35.8-5.4c5.2-0.9,8-3.8,8-8.6
				C350.2,184.8,350.2,167.6,350.1,150.4z M174.6,233.9c-32.6-0.3-58.2-26.1-58-58.5c0.2-32.6,26.1-58.2,58.5-58
				c32.6,0.2,58.2,26.1,58,58.5C232.9,208.5,207,234.2,174.6,233.9z"/>
		</g>
	</symbol>

    <symbol viewBox="0 0 479.5 459.2" id="icon-contact">
		<g>
			<path d="M109.1,336.3c0.7-0.4,1.5-0.8,2.4-1.3c-31.6-26.6-62.9-52.9-94.3-79.2c-5.1,43.9-10.3,87.7-15.4,131.6
				c0.8-0.3,1.7-0.4,2.5-0.8C39.2,369.8,74.1,353,109.1,336.3z"/>
			<path d="M193.5,357.4c-1.4-1.2-2.5-1-3.9-0.3c-8.4,4.3-16.9,8.5-25.3,12.8c-4.8,2.5-9.1,2-13.2-1.6c-7-6-14.2-11.8-21.1-17.9
				c-1.8-1.6-3.1-1.6-5.2-0.6c-14.1,6.9-28.3,13.6-42.4,20.4C55.7,383,29.2,395.9,2.5,408.5c-2.4,1.2-2.8,2.5-2.3,4.8
				c1.9,8.3,8.2,13.9,17.2,14.9c87.7,10.3,175.4,20.6,263.1,30.9c10.2,1.2,17.7-3.6,21.3-13.6c-0.5-0.5-0.9-0.9-1.4-1.3
				C264.8,415.3,229.1,386.4,193.5,357.4z"/>
			<path d="M474.8,362c-6.9-12-14.9-23.4-22.6-35c-8.4-12.7-16.5-25.6-25.5-37.8c-9.8-13.4-27.3-18.1-43-12.7
				c-9.7,3.3-15.7,10.4-21.2,18.6c-8.3,12.4-20.6,17.2-35.2,16.3c-3.1-0.2-6.1-0.8-8.9-1.7c-5.9-1.9-11.2-5.3-16.2-9
				c-1-0.8-2.1-1.6-3.1-2.4c-4.5-3.5-8.7-7.1-12.8-11c-13.2-12.6-24-27.1-33.3-42.9c-0.6-1-1.2-2-1.7-3c-10.4-18.3-18-37.5-19.3-58.8
				c-0.5-8.2,1.5-15.6,6.1-22.3c7-10.1,16.9-15.1,28.8-16.8c8.2-1.2,15.2-4.9,20.8-11c12.5-13.5,13.9-32.5,3.4-48.7
				c-14.2-21.8-28.7-43.4-43.1-65.1c-0.7-1-1.5-1.9-2.2-2.8c-5.3-6.7-12.4-10.7-20-14c-2.9-0.6-5.8-1.2-8.6-1.8
				c-12.3-0.8-22.4,4.4-32.1,11.2c-11,7.7-22.3,15.2-33.7,22.3c-13.6,8.5-21.4,20.8-25.3,36c-4.4,17.4-4.1,34.9-1.8,52.4
				c5.1,39.4,18.6,76.1,36,111.4c-38.9-4.6-77.8-9.1-116.6-13.7c-1.4-0.2-2.8-0.3-4.2-0.4c-7.7-0.3-15,4.5-17.9,11.5
				c-0.8,1.8-0.6,2.9,1,4.2c45.2,37.9,90.4,75.9,135.5,114c1.5,1.3,2.6,1.5,4.4,0.5c17.1-8.7,34.2-17.3,51.4-25.9
				c0.4-0.2,0.8-0.4,1.2-0.6c3.9,5.2,7.8,10.3,11.9,15.4c-5.4,2.7-10.8,5.4-16.2,8.2c31.6,25.6,62.9,50.9,94.5,76.5
				c0.2-2.1,0.5-4.2,0.7-6.3c7.7,5.6,15.6,10.9,23.9,15.7c14.6,8.5,29.9,15.5,46.7,18.1c15.7,2.5,30.4,0.2,43.8-9.2
				c12.6-8.8,25.6-17,38.3-25.5c3-2,5.8-4.3,8.4-6.7C479.7,397.4,483.4,377.2,474.8,362z"/>
		</g>
	</symbol>

    <symbol viewBox="0 0 381.6 381.7" id="icon-date">
		<g>
			<path d="M0,345.8c0-89.7,0-179.4,0-269c0.2-0.7,0.5-1.4,0.7-2.1c3.3-17.4,16-31.1,33.4-32.8c15.8-1.6,32-0.6,47.9-0.8l-0.1-0.1
				c0,18.1-0.1,36.3,0,54.4c0,7.9,5.8,13.5,13.3,13.6c7.7,0.1,13.6-5.6,13.7-13.6c0.1-18.1,0-36.2,0-54.4l-0.1,0.1
				c1.1-0.1,2.2-0.1,3.3-0.1c52.5,0,105,0,157.5,0c1.1,0,2.2,0.1,3.3,0.1c0,0-0.1-0.1-0.1-0.1c0,18.1-0.1,36.3,0,54.4
				c0,7.9,5.8,13.5,13.3,13.6c7.7,0.1,13.6-5.6,13.7-13.6c0.1-18.1,0-36.2,0-54.4l-0.1,0.1c13.3-0.1,26.6-0.2,39.9-0.1
				c24.6,0.1,42.2,17.7,42.2,42.3c0,85.3,0,170.7,0,256c0,3.6-0.3,7.2-1.1,10.7c-4.5,19.2-20.7,31.6-41.1,31.6
				c-90.3,0-180.6,0-270.9,0c-9.6,0-19.1,0.2-28.7-0.1c-13.1-0.4-23.6-6-31.6-16.4C3.7,359.4,1.7,352.7,0,345.8z M27.3,163.7
				c0,1.6,0,3,0,4.3c0,56.6,0,113.3,0,169.9c0,11.4,5,16.3,16.4,16.3c98.1,0,196.3,0,294.4,0c11.3,0,16.3-5,16.3-16.4
				c0-56.6,0-113.3,0-169.9c0-1.3,0-2.7,0-4.2C245.2,163.7,136.6,163.7,27.3,163.7z"/>
			<path d="M82.1,41.1c0-9.6-0.3-19.3,0-28.9C82.2,5.7,86.9,2.3,92.4,0c2,0,4,0,6,0c8.1,3,11.1,8.9,10.7,17.4
				c-0.4,7.9-0.2,15.8-0.3,23.7c0,0,0.1-0.1,0.1-0.1c-9,0-17.9,0-26.9,0L82.1,41.1z"/>
			<path d="M289.2,0c8.1,3,11.1,8.9,10.7,17.4c-0.4,7.9-0.2,15.8-0.3,23.7c0,0,0.1-0.1,0.1-0.1c-9,0-17.9,0-26.9,0
				c0,0,0.1,0.1,0.1,0.1c0-9.6-0.3-19.3,0-28.9c0.2-6.5,4.9-9.9,10.4-12.2C285.2,0,287.2,0,289.2,0z"/>
			<path d="M163.5,295.3c1.7-2.2,2.5-3.5,3.6-4.6c31.2-31.3,62.5-62.5,93.8-93.8c1.2-1.2,2.4-2.5,3.8-3.5c5.4-4,13-3.3,17.7,1.5
				c4.7,4.9,5.2,12.3,1,17.7c-1,1.3-2.1,2.4-3.3,3.6c-34.9,35-69.9,69.9-104.8,104.8c-8.1,8.1-15.3,8.1-23.4,0
				c-17-17-34.1-34.1-51.1-51.1c-4.1-4.1-6.4-8.8-4.7-14.7c2.7-9.3,13.6-12.9,21.3-7c1.2,0.9,2.2,2,3.3,3
				c13.3,13.3,26.5,26.5,39.8,39.8C161.3,292,161.9,293.2,163.5,295.3z"/>
		</g>
	</symbol>

  
	<symbol viewBox="0 0 343.9 357.9" id="icon-list">
		<path class="b" d="M251.8434,144c-19.8-.1-39.7,0-59.5,0h-58.4c-1.6,0-3.3,0-4.8,.4-6,1.5-9.9,7.2-9,13.3s6,10.3,12.7,10.3h118.3c1.2,0,2.5-.1,3.7-.4,5.9-1.5,9.7-7,9.1-12.9-.8-6.1-5.8-10.7-12.1-10.7Z"/><path class="b" d="M132.5434,95.9c19.7,.1,39.4,0,59.2,0h59.2c5.6,0,9.7-2.3,12-7.3,3.6-8-2.4-16.7-11.6-16.7-25.7-.1-51.4,0-77.1,0h-41.6c-5.6,0-9.9,2.9-11.8,7.6-3.3,8.2,2.6,16.4,11.7,16.4Z"/><path class="b" d="M84.1434,204c-8.1-.1-16.2-.1-24.3,0-6.7,.1-11.8,5.1-11.8,11.9-.1,8-.1,16,0,23.9,.1,6.9,5.2,11.9,12.1,12.1,3.9,.1,7.7,0,11.6,0,4.1,0,8.2,.1,12.3,0,6.6-.2,11.7-5.1,11.8-11.6,.2-8.2,.2-16.5,0-24.7-.1-6.5-5.2-11.5-11.7-11.6Z"/><path class="b" d="M59.5434,107.9c8.2,.2,16.5,.2,24.7,0,6.5-.1,11.6-5.2,11.7-11.7,.1-8.1,.1-16.2,0-24.3-.2-6.7-5.3-11.7-12-11.9-4-.1-8,0-12,0-4.1,0-8.2-.1-12.3,0-6.5,.2-11.6,5.2-11.7,11.7-.1,8.2-.2,16.5,0,24.7,.2,6.3,5.2,11.4,11.6,11.5Z"/><path class="b" d="M95.9434,144.7c-.1-7.7-5-12.7-12.6-12.7-7.6-.1-15.2-.1-22.8,0-7.5,.1-12.5,5-12.6,12.4-.1,7.7-.1,15.5,0,23.2,.1,7.2,5.1,12.3,12.2,12.4,7.9,.1,15.7,.1,23.6,0,7.1-.1,12.1-5.2,12.2-12.4,.1-3.7,0-7.5,0-11.2v-11.7Z"/><path class="b" d="M250.9434,239.9c5.6,0,9.7-2.3,12-7.4,3.6-8-2.5-16.6-11.7-16.6h-118.7c-5.6,0-9.9,2.9-11.7,7.6-3.1,8.1,2.8,16.3,11.9,16.3,19.7,.1,39.4,0,59.2,0,19.5,.1,39.2,.1,59,.1Z"/><g><path d="M274.9434,357.9c3.4,0,6.7-.3,10-1.2,16.5-4.5,26.9-18.4,26.9-36.1v-27.1c-18.8,21.5-37.5,42.9-56.3,64.4,6.4,0,12.9,0,19.4,0Z"/><path d="M203.4434,336.3c-7.2-7.6-14.3-15.3-21.5-22.9-2.1-2.2-5-5.3-6.5-9.7l-.5-1.4v-6l.4-1.3c1.5-5.1,4.4-8.8,8.4-11.1,7.1-4,15.8-2.6,21.6,3.5,2.8,2.9,5.5,5.9,8.3,8.8l25.7,27.4c.6-.7,1.2-1.4,1.8-2.1l16.3-18.7c18.1-20.7,36.3-41.5,54.4-62.2V37.7C311.8435,15.3,296.4434,0,273.8435,0H38.1434C15.1434,0-.0566,15.2-.0566,38.2V320.7c0,21.5,15.6,37.2,37,37.2H223.7434c-2.7-2.9-5.5-5.8-8.2-8.7l-12.1-12.9ZM120.7434,79.6c1.9-4.7,6.2-7.6,11.8-7.6h118.7c9.2,0,15.2,8.6,11.6,16.7-2.3,5.1-6.4,7.3-12,7.3h-118.4c-9.0001-.1-14.9-8.3-11.7001-16.4Zm134,87.9c-1.2,.3-2.5,.4-3.7,.4h-118.3c-6.7,0-11.8-4.2-12.7-10.3-.9-6,3-11.8,9-13.3,1.5-.4,3.2-.4,4.8-.4h117.9c6.3,0,11.3,4.7,12,10.7,.7,5.9-3.1,11.4-9.0001,12.9ZM47.9434,71.7c.1-6.6,5.1-11.5,11.7-11.7,4.1-.1,8.2,0,12.3,0,4,0,8-.1,12,0,6.7,.2,11.8,5.2,11.9,11.9,.1,8.1,.1,16.2,0,24.3-.1,6.5-5.2,11.6-11.7,11.7-8.2,.1-16.5,.2-24.7,0-6.3-.1-11.4-5.2-11.5-11.5-.1-8.2-.1-16.4,0-24.7Zm0,72.6c.1-7.4,5.1-12.3,12.6-12.4,7.6-.1,15.2-.1,22.8,0,7.6,.1,12.5,5.1,12.6,12.8v22.8c-.1,7.2-5.1,12.3-12.2,12.4-7.9,.1-15.7,.1-23.6,0-7.1-.1-12.1-5.2-12.2-12.4-.1-7.7-.1-15.5,0-23.2Zm47.9,96c-.1,6.5-5.3,11.4-11.8,11.6-4.1,.1-8.2,0-12.3,0-3.9,0-7.7,.1-11.6,0-7-.1-12-5.1-12.1-12.1-.1-8-.1-16,0-23.9,.1-6.8,5.1-11.8,11.8-11.9,8.1-.1,16.2-.1,24.3,0,6.5,.1,11.6,5.1,11.7,11.7,.2,8.1,.2,16.4,0,24.6Zm24.8-16.7c1.8-4.8,6.2-7.6,11.7-7.6h118.7c9.2,0,15.3,8.6,11.7,16.6-2.3,5.1-6.4,7.4-12,7.4h-59.2c-19.5-.1-39.2-.1-59-.1-9.1,0-15-8.2-11.9-16.3Z"/><path d="M338.6434,232.3c-3.4-1.4-7.1-.4-9.8,2.7-5.6,6.4-11.3,12.9-16.9,19.3v.0143c-21.2671,24.3619-42.6333,48.7236-63.9,72.9857-3,3.3-5.7,6.5-8.5,9.7-9.7-10.4-19.4-20.7-29-31-3.9-4.1-7.7-8.3-11.7-12.4-3-3.2-7.1-3.9-10.6-1.9-2.3,1.3-3.5,3.4-4.2,5.9v3.1c.9,2.6,2.7,4.6,4.6,6.5,9.8,10.4,19.6,20.9,29.4,31.3,5.1,5.4,10.2,10.9,15.3,16.3,2.8,3,6.3,3.8,9.8,2.4,2-.8,3.2-2.4,4.6-3.9,20.8-23.8,41.7-47.6,62.5-71.5,.6-.7,1.2-1.4,1.8-2v-.0151c9.6675-11.1625,19.4338-22.4231,29.3-33.5848,1.4-1.6,2.5-3.5,2.6-5.7,.2-3.6-1.9-6.8-5.3-8.2Z"/></g>
	</symbol>

    <symbol viewBox="0 0 64.1 53.8" id="icon-multi-users">
		<g>
			<path d="M0,30c0.3-1,0.4-2,0.8-3c1.8-4.2,4.9-6.7,9.4-7.5c1.9-0.3,3.8-0.1,5.7-0.1c1.5,0,3,0,4.4,0c0.3,0,0.4,0.1,0.5,0.4
				c0.2,2.9,1.3,5.3,3.3,7.4c0.1,0.1,0.1,0.1,0.2,0.2c-1.7,0.5-3.2,1.3-4.5,2.3c-3.5,2.8-5.4,6.4-5.6,10.9c0,0.9-0.1,1.8,0,2.6
				c0,0.6-0.1,0.7-0.7,0.7c-4.1-0.3-8.1-1.1-12.1-2.3c-0.5-0.1-1-0.3-1.4-0.4C0,37.5,0,33.8,0,30z"/>
			<path d="M48.5,45.1c0,1.7,0,3.4,0,5.1c0,0.5-0.2,0.7-0.6,0.9c-2.4,1.1-5,1.8-7.6,2.2c-7.7,1.2-15.2,0.3-22.7-1.9
				c-1.2-0.4-1.2-0.4-1.2-1.6c0-3,0-6,0-9.1c0.1-6.1,5.1-11.2,11.2-11.5c3.3-0.2,6.6-0.3,9.9,0c4.8,0.5,8.1,3.1,10,7.5
				c0.6,1.5,0.8,3.1,0.9,4.7C48.5,42.6,48.5,43.9,48.5,45.1z"/>
			<path d="M40.5,27.4c1-1,1.7-2,2.3-3.2c0.6-1.3,1.1-2.7,1.1-4.2c0-0.5,0.1-0.7,0.7-0.7c2.4,0,4.7,0,7.1,0c7,0,12.2,5.3,12.2,12.2
				c0,3,0,6,0,9c0,0.4-0.1,0.5-0.4,0.7c-2.5,1.2-5.2,1.9-8,2.3c-1.4,0.2-2.9,0.3-4.3,0.4c-0.4,0-0.5-0.1-0.5-0.5
				c0-1.6,0.1-3.1-0.2-4.7c-1-5.5-4.1-9.2-9.3-11.2c-0.2-0.1-0.4-0.1-0.5-0.2C40.6,27.5,40.6,27.5,40.5,27.4z"/>
			<path d="M23.1,19c0-5.2,4.2-9.4,9.4-9.4c5.1,0,9.4,4.2,9.4,9.4c0,5.2-4.2,9.4-9.4,9.4C27.2,28.4,23.1,24.2,23.1,19z"/>
			<path d="M16,0c5.2,0,9.4,4.2,9.4,9.3c0,0.4-0.1,0.7-0.4,1c-2,1.7-3.3,3.9-3.8,6.5c-0.1,0.4-0.3,0.6-0.7,0.8
				c-5.6,3-12.5-0.2-13.7-6.4C5.7,5.4,10.1,0,16,0z"/>
			<path d="M57.4,9.4c0,6.6-6.8,11.2-12.9,8.6c-0.3-0.1-0.5-0.3-0.5-0.7c-0.5-3.4-2.2-6-5-7.9c-0.4-0.3-0.3-0.6-0.3-0.9
				C39.1,3.7,43.1,0,48,0C53.2,0,57.4,4.2,57.4,9.4z"/>
		</g>
	</symbol>

    <symbol viewBox="0 0 455.8 514.5" id="icon-person-check">
		<g class="st0">
			<g class="st1">
			</g>
		</g>
		<g>
			<path class="st2" d="M298.5,230.8c52.8-52.8,52.8-138.4,0-191.2c-25.8-25.8-59.5-39-93.4-39.6h-4.5c-33.9,0.6-67.5,13.7-93.4,39.6
				c-52.8,52.8-52.8,138.4,0,191.2C160.1,283.6,245.7,283.6,298.5,230.8z"/>
			<path class="st2" d="M245,360.6c0-22,6.1-42.6,16.7-60.2c-17.5-2.8-36.6-4.3-57.1-4.3C68.4,296.1,0,356.6,0,431.3v9.8V508
				c0,3.5,2.9,6.4,6.4,6.4h392.8c3.5,0,6.4-2.9,6.4-6.4v-38.7c-13.5,5.4-28.2,8.4-43.5,8.4C297.5,477.8,245,425.2,245,360.6z"/>
			<path class="st2" d="M362.2,266.9c-51.7,0-93.7,41.9-93.7,93.7c0,51.7,41.9,93.7,93.7,93.7c51.8,0,93.7-41.9,93.7-93.7
				C455.8,308.8,413.9,266.9,362.2,266.9z M361.4,411.1c-5.9,5.9-15.6,5.9-21.5,0l-0.5-0.5L310,381.2c-5.9-5.9-5.9-15.6,0-21.5
				c5.9-5.9,15.6-5.9,21.5,0l18.7,18.7l57.8-57.8c5.9-5.9,15.6-5.9,21.5,0c5.9,5.9,5.9,15.6,0,21.5
				C429.4,342.1,362.6,409.9,361.4,411.1z"/>
		</g>
	</symbol>

    <symbol viewBox="0 0 343.9 357.9" id="icon-list">
		<g>
			<path class="stnew" d="M251.9,144c-19.8-0.1-39.7,0-59.5,0c-19.5,0-38.9,0-58.4,0c-1.6,0-3.3,	0-4.8,0.4c-6,1.5-9.9,7.2-9,13.3
				c0.9,6.1,6,10.3,12.7,10.3c39.4,0,78.9,0,118.3,0c1.2,0,2.5-0.1,3.7-0.4c5.9-1.5,9.7-7,9.1-12.9C263.2,148.6,258.2,144,251.9,144z"
				/>
			<path class="stnew" d="M132.6,95.9c19.7,0.1,39.4,0,59.2,0c19.7,0,39.4,0,59.2,0c5.6,0,9.7-2.3,12-7.3c3.6-8-2.4-16.7-11.6-16.7
				c-25.7-0.1-51.4,0-77.1,0c-13.9,0-27.7,0-41.6,0c-5.6,0-9.9,2.9-11.8,7.6C117.6,87.7,123.5,95.9,132.6,95.9z"/>
			<path class="stnew" d="M84.2,204c-8.1-0.1-16.2-0.1-24.3,0c-6.7,0.1-11.8,5.1-11.8,11.9c-0.1,8-0.1,16,0,23.9
				c0.1,6.9,5.2,11.9,12.1,12.1c3.9,0.1,7.7,0,11.6,0c4.1,0,8.2,0.1,12.3,0c6.6-0.2,11.7-5.1,11.8-11.6c0.2-8.2,0.2-16.5,0-24.7
				C95.8,209.1,90.7,204.1,84.2,204z"/>
			<path class="stnew" d="M59.6,107.9c8.2,0.2,16.5,0.2,24.7,0c6.5-0.1,11.6-5.2,11.7-11.7c0.1-8.1,0.1-16.2,0-24.3
				C95.8,65.2,90.7,60.2,84,60c-4-0.1-8,0-12,0c-4.1,0-8.2-0.1-12.3,0c-6.5,0.2-11.6,5.2-11.7,11.7c-0.1,8.2-0.2,16.5,0,24.7
				C48.2,102.7,53.2,107.8,59.6,107.9z"/>
			<path class="stnew" d="M96,144.7C95.9,137,91,132,83.4,132c-7.6-0.1-15.2-0.1-22.8,0c-7.5,0.1-12.5,5-12.6,12.4
				c-0.1,7.7-0.1,15.5,0,23.2c0.1,7.2,5.1,12.3,12.2,12.4c7.9,0.1,15.7,0.1,23.6,0c7.1-0.1,12.1-5.2,12.2-12.4c0.1-3.7,0-7.5,0-11.2
				C96,152.4,96,148.6,96,144.7z"/>
			<path class="stnew" d="M251,239.9c5.6,0,9.7-2.3,12-7.4c3.6-8-2.5-16.6-11.7-16.6c-28.2,0-56.4,0-84.6,0c-11.4,0-22.7,0-34.1,0
				c-5.6,0-9.9,2.9-11.7,7.6c-3.1,8.1,2.8,16.3,11.9,16.3c19.7,0.1,39.4,0,59.2,0C211.5,239.9,231.2,239.9,251,239.9z"/>
			<path d="M275,357.9c3.4,0,6.7-0.3,10-1.2c16.5-4.5,26.9-18.4,26.9-36.1c0-8.5,0-17.6,0-27.1c-18.8,21.5-37.5,42.9-56.3,64.4
				C262,357.9,268.5,357.9,275,357.9z"/>
			<path d="M203.5,336.3c-7.2-7.6-14.3-15.3-21.5-22.9c-2.1-2.2-5-5.3-6.5-9.7l-0.5-1.4v-6l0.4-1.3c1.5-5.1,4.4-8.8,8.4-11.1
				c7.1-4,15.8-2.6,21.6,3.5c2.8,2.9,5.5,5.9,8.3,8.8l25.7,27.4c0.6-0.7,1.2-1.4,1.8-2.1l16.3-18.7c18.1-20.7,36.3-41.5,54.4-62.2
				c0-69,0-147.4,0-202.9c0-22.4-15.4-37.7-38-37.7C195.4,0,116.8,0,38.2,0C15.2,0,0,15.2,0,38.2c0,39.1,0,78.2,0,117.3
				C0,195.2,0,281,0,320.7c0,21.5,15.6,37.2,37,37.2c62.3,0,124.5,0,186.8,0c-2.7-2.9-5.5-5.8-8.2-8.7L203.5,336.3z M48,71.7
				c0.1-6.6,5.1-11.5,11.7-11.7c4.1-0.1,8.2,0,12.3,0c4,0,8-0.1,12,0c6.7,0.2,11.8,5.2,11.9,11.9c0.1,8.1,0.1,16.2,0,24.3
				c-0.1,6.5-5.2,11.6-11.7,11.7c-8.2,0.1-16.5,0.2-24.7,0c-6.3-0.1-11.4-5.2-11.5-11.5C47.9,88.2,47.9,80,48,71.7z M96,167.5
				c-0.1,7.2-5.1,12.3-12.2,12.4c-7.9,0.1-15.7,0.1-23.6,0c-7.1-0.1-12.1-5.2-12.2-12.4c-0.1-7.7-0.1-15.5,0-23.2
				c0.1-7.4,5.1-12.3,12.6-12.4c7.6-0.1,15.2-0.1,22.8,0C91,132,95.9,137,96,144.7c0,3.9,0,7.7,0,11.6C96,160.1,96,163.8,96,167.5z
				M95.9,240.3c-0.1,6.5-5.3,11.4-11.8,11.6c-4.1,0.1-8.2,0-12.3,0c-3.9,0-7.7,0.1-11.6,0c-7-0.1-12-5.1-12.1-12.1
				c-0.1-8-0.1-16,0-23.9c0.1-6.8,5.1-11.8,11.8-11.9c8.1-0.1,16.2-0.1,24.3,0c6.5,0.1,11.6,5.1,11.7,11.7
				C96.1,223.8,96.1,232.1,95.9,240.3z M120.8,79.6c1.9-4.7,6.2-7.6,11.8-7.6c13.9,0,27.7,0,41.6,0c25.7,0,51.4,0,77.1,0
				c9.2,0,15.2,8.6,11.6,16.7c-2.3,5.1-6.4,7.3-12,7.3c-19.7,0-39.4,0-59.2,0c-19.7,0-39.4,0-59.2,0C123.5,95.9,117.6,87.7,120.8,79.6
				z M254.8,167.5c-1.2,0.3-2.5,0.4-3.7,0.4c-39.4,0-78.9,0-118.3,0c-6.7,0-11.8-4.2-12.7-10.3c-0.9-6,3-11.8,9-13.3
				c1.5-0.4,3.2-0.4,4.8-0.4c19.5,0,38.9,0,58.4,0c19.8,0,39.7,0,59.5,0c6.3,0,11.3,4.7,12,10.7C264.5,160.5,260.7,166,254.8,167.5z
				M132.6,239.9c-9.1,0-15-8.2-11.9-16.3c1.8-4.8,6.2-7.6,11.7-7.6c11.4,0,22.7,0,34.1,0c28.2,0,56.4,0,84.6,0
				c9.2,0,15.3,8.6,11.7,16.6c-2.3,5.1-6.4,7.4-12,7.4c-19.7,0-39.4,0-59.2,0C172.1,239.9,152.4,239.9,132.6,239.9z"/>
			<path d="M341.4,246.2c1.4-1.6,2.5-3.5,2.6-5.7c0.2-3.6-1.9-6.8-5.3-8.2c-3.4-1.4-7.1-0.4-9.8,2.7c-5.6,6.4-11.3,12.9-16.9,19.3
				c0,8.7,0,17.3,0,25.6C321.7,268.7,331.5,257.4,341.4,246.2z"/>
			<path d="M239.6,337c-9.7-10.4-19.4-20.7-29-31c-3.9-4.1-7.7-8.3-11.7-12.4c-3-3.2-7.1-3.9-10.6-1.9c-2.3,1.3-3.5,3.4-4.2,5.9
				c0,1,0,2.1,0,3.1c0.9,2.6,2.7,4.6,4.6,6.5c9.8,10.4,19.6,20.9,29.4,31.3c5.1,5.4,10.2,10.9,15.3,16.3c2.8,3,6.3,3.8,9.8,2.4
				c2-0.8,3.2-2.4,4.6-3.9c20.8-23.8,41.7-47.6,62.5-71.5c0.6-0.7,1.2-1.4,1.8-2c0-8.3,0-16.8,0-25.6c-21.3,24.4-42.7,48.8-64,73.1
				C245.1,330.6,242.4,333.8,239.6,337z"/>
		</g>
	</symbol>

    <symbol viewBox="0 0 64 62.7" id="icon-group">
		<g>
			<path d="M30.1,0.4c-4.2,1-6.9,3.5-7.9,7.8c-0.7,3.1,0,6,2.1,8.5c3.5,4.1,9.5,4.8,13.7,1.4c2.7-2.2,4-5,3.8-8.5
				c-0.2-4.4-3.6-8.4-8.3-9.2c-0.2,0-0.5,0-0.5-0.3c-0.8,0-1.6,0-2.4,0C30.7,0.4,30.3,0.3,30.1,0.4z"/>
			<path d="M30.4,0.1C24.9,0.9,21,6.4,22,11.9c1,5.7,6.5,9.5,12.1,8.3c4.2-0.9,7.5-4.5,8-8.6C42.6,7,40.4,2.9,36.4,1
				c-1-0.5-2.2-0.7-3.3-1c0,0.4,0.3,0.3,0.5,0.3c4.6,0.8,8,4.8,8.3,9.2c0.2,3.5-1.1,6.4-3.8,8.5c-4.2,3.3-10.2,2.7-13.7-1.4
				c-2.1-2.5-2.8-5.4-2.1-8.5c0.9-4.2,3.7-6.8,7.9-7.8c0.2-0.1,0.6,0,0.6-0.4C30.7,0.2,30.5,0.1,30.4,0.1z"/>
			<path d="M16.1,53c1.9-3.2,4.6-5.4,8.3-6.6c-0.1-0.2-0.2-0.3-0.3-0.3c-1.9-2-3-4.4-3.2-7.2c0-0.5-0.3-0.5-0.7-0.5c-3,0-5.9,0-8.9,0
				c-0.6,0-1.1,0.1-1.7,0.2C4,39.8,0.1,44.6,0,50.5c0,3.1,0,6.2,0,9.2c0,0.5,0.2,0.6,0.6,0.7c4.2,1.3,8.5,2.2,12.8,2.5
				c0.7,0.1,0.8-0.1,0.8-0.8c-0.1-0.7,0-1.4,0-2.1C14.3,57.6,14.9,55.2,16.1,53z"/>
			<path d="M63.9,49.8c-0.2-6.3-5.4-11.3-11.6-11.4c-2.6-0.1-5.2,0-7.7,0c-0.4,0-0.5,0.2-0.5,0.5c-0.1,1.1-0.3,2.2-0.7,3.3
				c-0.6,1.6-1.6,3-2.8,4.2c0.2,0.1,0.3,0.1,0.4,0.2c5.1,1.8,8.2,5.4,9.4,10.6c0.4,1.8,0.3,3.5,0.3,5.3c0,0.4,0.1,0.6,0.6,0.5
				c1.3-0.1,2.5-0.2,3.7-0.4c2.9-0.4,5.8-1.1,8.5-2.4c0.3-0.1,0.5-0.2,0.5-0.6C64,56.4,64.1,53.1,63.9,49.8z"/>
			<path d="M16.5,37.7c1,0,2.4-0.4,3.8-1.1c0.5-0.2,0.7-0.5,0.8-1.1c0.5-2.5,1.8-4.7,3.8-6.3c0.3-0.3,0.5-0.6,0.5-1
				c-0.2-5.5-4.6-9.6-10.1-9.2c-4.9,0.3-8.8,4.6-8.6,9.6C6.8,33.7,11,37.8,16.5,37.7z"/>
			<path d="M39,28.5c2.8,1.9,4.4,4.6,4.9,7.9c0,0.3,0.2,0.5,0.5,0.6c1.5,0.6,3.1,0.8,4.7,0.6c5-0.6,8.5-5,8.2-10.2
				C57,22.8,52.8,18.9,48,19c-4.9,0-9.1,4-9.3,8.7C38.6,28.1,38.7,28.3,39,28.5z"/>
			<path d="M35.8,26.9c0.4,0.1,0.8,0.4,1,0.3c0.3-0.2,0.2-0.7,0.2-1.1c0.3-1.7,1-3.2,1.9-4.7c-1.7-0.4-12-0.5-13.9,0
				c1.4,1.9,2,4,2.1,6.3C30.5,26.1,33.4,26.2,35.8,26.9z"/>
		</g>
	</symbol>    

	<symbol viewBox="0 0 123.5 61.7" id="icon-expand-arrow">
		<g>
			<path d="M0,0h123.5L61.7,61.7L0,0z"/>
		</g>
	</symbol>

	<symbol viewBox="0 0 88.1 92.2" id="icon-funnel">
		<polygon points="0,0 0,10.4 31.9,42.5 31.9,78.9 51.4,92.2 56.2,92.2 56.2,42.5 56.2,42.5 88.1,10.4 88.1,0 "/>
	</symbol>

	<symbol viewBox="0 0 398.4 398" id="icon-newspaper">
        <path d="M49.7188,109.6079V59.8882H397.7559v225.0972c0,6.6035-1.293,12.8516-3.8843,18.7422-2.5884,5.8936-6.0513,11.0068-10.3906,15.3428-4.3364,4.3398-9.4497,7.8027-15.3433,10.3906-5.8901,2.5918-12.1387,3.8848-18.7417,3.8848H49.7187c-6.7305,0-13.1396-1.3262-19.2266-3.9814-6.085-2.6523-11.3623-6.2148-15.8291-10.6816-4.4668-4.4678-8.0264-9.7109-10.6816-15.7324C1.3291,296.9297,0,290.4902,0,283.626V109.6079H49.7188Zm-24.8594,174.0181c0,3.4961,.6494,6.7344,1.9424,9.7109,1.2959,2.9795,3.0771,5.6016,5.3408,7.8652,2.2666,2.2676,4.8887,4.0488,7.8662,5.3418,2.9795,1.2959,6.2148,1.9414,9.71,1.9414H349.396c3.2378,0,6.2817-.6123,9.1279-1.8447,2.8496-1.2285,5.3413-2.9131,7.4775-5.0498,2.1362-2.1357,3.8203-4.6279,5.0498-7.4775,1.2319-2.8457,1.8447-5.8896,1.8447-9.1279V84.748H74.5791v186.4482c0,3.3682-1.2295,6.2812-3.6904,8.7393-2.458,2.4619-5.3711,3.6904-8.7393,3.6904-3.3652,0-6.2793-1.2285-8.7402-3.6904-2.458-2.458-3.6904-5.3711-3.6904-8.7393V134.4673H24.8594v149.1587ZM99.4385,109.6079h248.5977v24.8594H99.4385v-24.8594Zm124.2988,49.1367h124.2988v124.8813h-124.2988v-124.8813Zm99.4395,24.8599h-74.5796v75.1621h74.5796v-75.1621Zm-223.7383-24.2773h99.4395v24.8599H99.4385v-24.8599Zm0,49.7197h99.4395v24.8594H99.4385v-24.8594Zm0,49.7197h99.4395v24.8594H99.4385v-24.8594Z"/>
    </symbol>

	<symbol viewBox="0 0 441.7 489.7" id="icon-file">
		<path d="M441.6229,331.3304c-.0115-16.742-.022-33.4907-.022-50.2509,0-16.6914,.0105-33.3723,.022-50.049,.0132-20.653,.0271-41.7489,.0192-62.8766-.0003-1.0695-.0014-2.1394-.0018-3.2089-.0049-10.1418-.0154-20.282-.0334-30.3835-.0034-2.0544-.0027-4.1069-.0068-6.1616,0-24.4712-14.0231-43.8633-35.9948-51.1524-3.6539-1.4076-7.519-2.4963-11.5824-3.2089-3.793-.6503-7.545-.657-11.1537-.657h-.1118c-22.8212-.1089-42.8081-.0779-61.0417,.095,.0019-1.9189,.0363-3.8417,.0697-5.7654,.1442-8.2917,.2941-16.8657-1.9891-25.4888-2.6376-10.0887-8.0635-19.0259-15.2372-26.0038C295.4147,6.5115,282.7383,.3212,269.1,.2c-50.4-.4-100.8-.1-151.3-.2-3.6,0-6.5,1.3-9.1,3.8C73.8,38.7,38.9,73.5,4,108.3c-2.8,2.8-4,6-4,10,.0012,.9209,.0003,1.8425,.0013,2.7634,0,.0128-.0016,.0248-.0016,.0377v.0062c.0012,.9678,.002,1.9402,.0031,2.9089,.0188,17.6982,.0267,35.4,.0258,53.1051,0,2.2955,0,4.592-.0003,6.8839-.0023,16.6721-.0085,33.3459-.0141,50.0201-.0071,21.3004-.0112,42.8898-.0002,64.5459,.0007,1.3258,.0014,2.6515,.0021,3.9773,.0111,18.3899,.034,36.8031,.0777,55.0994,.0033,1.4504,.0026,2.9019,.0062,4.3523,.0768,23.427,13.6726,42.0027,34.2448,49.4553,7.2173,2.9622,15.3035,4.611,24.0104,4.6663,23.3154,.1118,42.8922,.0793,61.5264-.0945-.021,1.7266-.0659,3.4559-.1112,5.1863-.2072,7.9461-.4211,16.1614,1.631,24.457,2.6273,10.4651,7.814,19.5453,14.8051,26.644,9.4988,10.6149,23.1336,17.0232,38.7935,17.0856,71.4,.3,142.8,.4,214.1,0,30.1-.2,52.4-23.4,52.5-53.5,.0072-3.6899,.0069-7.3802,.0121-11.0701,.0128-7.899,.0212-15.8185,.026-23.746,.001-2.1295,.0031-4.2591,.0037-6.3887,.0082-21.2846-.0057-42.549-.019-63.3647Zm-321.8353-41.5485c0,8.0167-.0062,16.0344-.0124,24.0511-.0177,23.5966-.0363,47.9925,.1089,71.9711-10.1663-.0945-20.4181-.1184-30.5505-.1184-5.1591,0-10.2875,.0067-15.3578,.0124-5.1624,.0067-10.3281,.0124-15.5001,.0124-17.3107,0-28.0643-10.6036-28.0643-27.6808-.0492-37.3019-.0492-75.2303-.0492-111.9096,0-36.42,0-74.0724-.0477-111.1232,11.2076,.1365,22.6073,.1174,33.6392,.1003,3.8169-.0062,7.6314-.0125,11.454-.0125,34.7665-.106,59.0479-24.3534,59.0479-58.9652V30.7502c17.2634,.0344,34.7604,.0115,51.6977-.011,26.1448-.0358,53.1797-.0712,79.7968,.1055,14.4931,.0812,25.1971,11.1375,25.453,26.2905,.0372,2.2026,.0143,4.473-.0086,6.6688-.0334,3.1566-.0668,6.4125,.0754,9.6693-8.2498-.0917-16.5902-.0917-24.6614-.0917-8.2307,0-16.742,0-25.0825-.097-6.1288-.1179-11.0496,1.8865-15.4892,6.3256-37.9575,38.0687-69.7709,69.8506-100.128,100.0301-4.3793,4.3794-6.4191,9.2687-6.4191,15.4023,.0978,31.5775,.0978,63.6874,.0978,94.7393ZM52.4489,104.6675c8.4594-8.5033,16.8824-16.9813,25.3327-25.4869,8.7038-8.7601,17.4348-17.548,26.2623-26.4208,.073,9.1016,.1083,17.8307-.0965,26.5703l-.0005,.0186c-.2535,12.9251-8.9602,23.0747-21.1424,24.6776-9.0194,1.1277-18.0312,.922-27.5724,.7033-.9216-.021-1.8502-.0425-2.7832-.0621Zm171.093,48.9106l-.001,.0291c-.4068,12.8349-11.3279,23.4763-24.3658,23.7222-8.7745,.2015-17.6344,.1704-26.2265,.1322,8.4598-8.5257,16.9344-17.0557,25.4224-25.5995,8.4202-8.4756,16.8542-16.965,25.3026-25.4788,.1155,8.9764,.2063,18.2012-.1318,27.1948Zm-26.9456,54.2593c33.2396-.3184,57.4426-24.658,57.5495-57.8585,.1099-17.358,.0774-32.5415-.0993-46.4789,41.9974,.1915,85.4205,.3901,128.0491-.0005,.1184-.0014,.2358-.0019,.3533-.0019,8.3242,0,15.5035,2.799,20.7795,8.1055,5.3238,5.3549,8.1858,12.8688,8.0588,21.1744-.4193,35.3705-.3371,71.3557-.2588,106.1561,.0315,14.1517,.064,28.2992,.064,42.439v149.0253c0,17.5729-10.4919,28.0648-28.0648,28.0648H178.166c-17.3112,0-28.0648-10.6037-28.0648-27.6799-.0491-37.2532-.0491-75.1625-.0491-111.8237,0-36.4148,0-74.0609-.0478-111.1117,15.4701,.1848,31.145,.1824,46.5921-.0101Z"/>
    </symbol>

	<symbol viewBox="0 0 123.5 61.7" id="icon-line-up-arrow">
		<g>
			<path d="M112,50l-12,11.9L61.7,23.7L23.5,61.9L11.5,50L61.7-0.2L112,50z"/>
		</g>
	</symbol>

	<symbol viewBox="0 0 123.5 61.7" id="icon-line-down-arrow">
		<g>
			<path d="M111.4,11.9L61.7,61.6L12,11.9L23.9,0.1L61.7,38L99.6,0.1L111.4,11.9z"/>
		</g>
	</symbol>
</svg>




    
