<svg xmlns="http://www.w3.org/2000/svg" >
	<symbol viewBox="0 0 64 62.7" id="icon-group">
		<g>
			<path d="M30.1,0.4c-4.2,1-6.9,3.5-7.9,7.8c-0.7,3.1,0,6,2.1,8.5c3.5,4.1,9.5,4.8,13.7,1.4c2.7-2.2,4-5,3.8-8.5
				c-0.2-4.4-3.6-8.4-8.3-9.2c-0.2,0-0.5,0-0.5-0.3c-0.8,0-1.6,0-2.4,0C30.7,0.4,30.3,0.3,30.1,0.4z"/>
			<path d="M30.4,0.1C24.9,0.9,21,6.4,22,11.9c1,5.7,6.5,9.5,12.1,8.3c4.2-0.9,7.5-4.5,8-8.6C42.6,7,40.4,2.9,36.4,1
				c-1-0.5-2.2-0.7-3.3-1c0,0.4,0.3,0.3,0.5,0.3c4.6,0.8,8,4.8,8.3,9.2c0.2,3.5-1.1,6.4-3.8,8.5c-4.2,3.3-10.2,2.7-13.7-1.4
				c-2.1-2.5-2.8-5.4-2.1-8.5c0.9-4.2,3.7-6.8,7.9-7.8c0.2-0.1,0.6,0,0.6-0.4C30.7,0.2,30.5,0.1,30.4,0.1z"/>
			<path d="M16.1,53c1.9-3.2,4.6-5.4,8.3-6.6c-0.1-0.2-0.2-0.3-0.3-0.3c-1.9-2-3-4.4-3.2-7.2c0-0.5-0.3-0.5-0.7-0.5c-3,0-5.9,0-8.9,0
				c-0.6,0-1.1,0.1-1.7,0.2C4,39.8,0.1,44.6,0,50.5c0,3.1,0,6.2,0,9.2c0,0.5,0.2,0.6,0.6,0.7c4.2,1.3,8.5,2.2,12.8,2.5
				c0.7,0.1,0.8-0.1,0.8-0.8c-0.1-0.7,0-1.4,0-2.1C14.3,57.6,14.9,55.2,16.1,53z"/>
			<path d="M63.9,49.8c-0.2-6.3-5.4-11.3-11.6-11.4c-2.6-0.1-5.2,0-7.7,0c-0.4,0-0.5,0.2-0.5,0.5c-0.1,1.1-0.3,2.2-0.7,3.3
				c-0.6,1.6-1.6,3-2.8,4.2c0.2,0.1,0.3,0.1,0.4,0.2c5.1,1.8,8.2,5.4,9.4,10.6c0.4,1.8,0.3,3.5,0.3,5.3c0,0.4,0.1,0.6,0.6,0.5
				c1.3-0.1,2.5-0.2,3.7-0.4c2.9-0.4,5.8-1.1,8.5-2.4c0.3-0.1,0.5-0.2,0.5-0.6C64,56.4,64.1,53.1,63.9,49.8z"/>
			<path d="M16.5,37.7c1,0,2.4-0.4,3.8-1.1c0.5-0.2,0.7-0.5,0.8-1.1c0.5-2.5,1.8-4.7,3.8-6.3c0.3-0.3,0.5-0.6,0.5-1
				c-0.2-5.5-4.6-9.6-10.1-9.2c-4.9,0.3-8.8,4.6-8.6,9.6C6.8,33.7,11,37.8,16.5,37.7z"/>
			<path d="M39,28.5c2.8,1.9,4.4,4.6,4.9,7.9c0,0.3,0.2,0.5,0.5,0.6c1.5,0.6,3.1,0.8,4.7,0.6c5-0.6,8.5-5,8.2-10.2
				C57,22.8,52.8,18.9,48,19c-4.9,0-9.1,4-9.3,8.7C38.6,28.1,38.7,28.3,39,28.5z"/>
			<path d="M35.8,26.9c0.4,0.1,0.8,0.4,1,0.3c0.3-0.2,0.2-0.7,0.2-1.1c0.3-1.7,1-3.2,1.9-4.7c-1.7-0.4-12-0.5-13.9,0
				c1.4,1.9,2,4,2.1,6.3C30.5,26.1,33.4,26.2,35.8,26.9z"/>
		</g>
	</symbol>
</svg>
